<mxfile host="app.diagrams.net" agent="Mozilla/5.0 (Windows NT 10.0; Win64; x64) AppleWebKit/537.36 (KHTML, like Gecko) Chrome/134.0.0.0 Safari/537.36" version="26.1.3" pages="4">
  <diagram name="Implantação" id="SEy9bFjtP0z5uUcw2kKl">
    <mxGraphModel dx="1036" dy="609" grid="1" gridSize="10" guides="1" tooltips="1" connect="1" arrows="1" fold="1" page="1" pageScale="1" pageWidth="850" pageHeight="1100" math="0" shadow="0">
      <root>
        <mxCell id="0" />
        <mxCell id="1" parent="0" />
        <mxCell id="CHIV6Dw_ay6zXECjPHb4-73" value="" style="verticalAlign=top;align=left;spacingTop=8;spacingLeft=2;spacingRight=12;shape=cube;size=10;direction=south;fontStyle=4;html=1;whiteSpace=wrap;" parent="1" vertex="1">
          <mxGeometry x="440" y="400" width="360" height="140" as="geometry" />
        </mxCell>
        <mxCell id="CHIV6Dw_ay6zXECjPHb4-41" value="" style="verticalAlign=top;align=left;spacingTop=8;spacingLeft=2;spacingRight=12;shape=cube;size=10;direction=south;fontStyle=4;html=1;whiteSpace=wrap;movable=0;resizable=0;rotatable=0;deletable=0;editable=0;locked=1;connectable=0;" parent="1" vertex="1">
          <mxGeometry x="10" y="20" width="285" height="130" as="geometry" />
        </mxCell>
        <mxCell id="CHIV6Dw_ay6zXECjPHb4-43" value="Usuários" style="text;html=1;align=center;verticalAlign=middle;resizable=0;points=[];autosize=1;strokeColor=none;fillColor=none;" parent="1" vertex="1">
          <mxGeometry x="10" y="30" width="70" height="30" as="geometry" />
        </mxCell>
        <mxCell id="CHIV6Dw_ay6zXECjPHb4-44" value="" style="verticalAlign=top;align=left;spacingTop=8;spacingLeft=2;spacingRight=12;shape=cube;size=10;direction=south;fontStyle=4;html=1;whiteSpace=wrap;" parent="1" vertex="1">
          <mxGeometry x="20" y="70" width="115" height="65" as="geometry" />
        </mxCell>
        <mxCell id="CHIV6Dw_ay6zXECjPHb4-45" value="Usuário Externo (Cliente)" style="text;whiteSpace=wrap;html=1;" parent="1" vertex="1">
          <mxGeometry x="20" y="82.5" width="90" height="40" as="geometry" />
        </mxCell>
        <mxCell id="CHIV6Dw_ay6zXECjPHb4-46" value="" style="verticalAlign=top;align=left;spacingTop=8;spacingLeft=2;spacingRight=12;shape=cube;size=10;direction=south;fontStyle=4;html=1;whiteSpace=wrap;" parent="1" vertex="1">
          <mxGeometry x="150" y="70" width="120" height="65" as="geometry" />
        </mxCell>
        <mxCell id="CHIV6Dw_ay6zXECjPHb4-47" value="Usuário Interno (Funcionário/Admin)" style="text;whiteSpace=wrap;html=1;" parent="1" vertex="1">
          <mxGeometry x="150" y="82.5" width="90" height="40" as="geometry" />
        </mxCell>
        <mxCell id="CHIV6Dw_ay6zXECjPHb4-51" value="" style="verticalAlign=top;align=left;spacingTop=8;spacingLeft=2;spacingRight=12;shape=cube;size=10;direction=south;fontStyle=4;html=1;whiteSpace=wrap;" parent="1" vertex="1">
          <mxGeometry x="32.5" y="170" width="470" height="130" as="geometry" />
        </mxCell>
        <mxCell id="CHIV6Dw_ay6zXECjPHb4-48" value="" style="verticalAlign=top;align=left;spacingTop=8;spacingLeft=2;spacingRight=12;shape=cube;size=10;direction=south;fontStyle=4;html=1;whiteSpace=wrap;" parent="1" vertex="1">
          <mxGeometry x="47.5" y="220" width="210" height="70" as="geometry" />
        </mxCell>
        <mxCell id="CHIV6Dw_ay6zXECjPHb4-52" value="&lt;strong data-start=&quot;433&quot; data-end=&quot;453&quot;&gt;Frontend Cliente&lt;/strong&gt; (React/Vue) – hospedado no serviço de CDN (ex.: AWS CloudFront)" style="text;whiteSpace=wrap;html=1;" parent="1" vertex="1">
          <mxGeometry x="50" y="230" width="180" height="40" as="geometry" />
        </mxCell>
        <mxCell id="CHIV6Dw_ay6zXECjPHb4-53" value="" style="verticalAlign=top;align=left;spacingTop=8;spacingLeft=2;spacingRight=12;shape=cube;size=10;direction=south;fontStyle=4;html=1;whiteSpace=wrap;" parent="1" vertex="1">
          <mxGeometry x="270" y="220" width="210" height="70" as="geometry" />
        </mxCell>
        <mxCell id="CHIV6Dw_ay6zXECjPHb4-54" value="&lt;strong data-start=&quot;522&quot; data-end=&quot;552&quot;&gt;Frontend Funcionário/Admin&lt;/strong&gt; (React/Vue) – hospedado separadamente também via CDN" style="text;whiteSpace=wrap;html=1;" parent="1" vertex="1">
          <mxGeometry x="270" y="230" width="190" height="40" as="geometry" />
        </mxCell>
        <mxCell id="CHIV6Dw_ay6zXECjPHb4-60" value="" style="verticalAlign=top;align=left;spacingTop=8;spacingLeft=2;spacingRight=12;shape=cube;size=10;direction=south;fontStyle=4;html=1;whiteSpace=wrap;" parent="1" vertex="1">
          <mxGeometry x="20" y="420" width="350" height="210" as="geometry" />
        </mxCell>
        <mxCell id="CHIV6Dw_ay6zXECjPHb4-61" value="" style="verticalAlign=top;align=left;spacingTop=8;spacingLeft=2;spacingRight=12;shape=cube;size=10;direction=south;fontStyle=4;html=1;whiteSpace=wrap;" parent="1" vertex="1">
          <mxGeometry x="30" y="470" width="100" height="70" as="geometry" />
        </mxCell>
        <mxCell id="CHIV6Dw_ay6zXECjPHb4-62" value="" style="verticalAlign=top;align=left;spacingTop=8;spacingLeft=2;spacingRight=12;shape=cube;size=10;direction=south;fontStyle=4;html=1;whiteSpace=wrap;" parent="1" vertex="1">
          <mxGeometry x="140" y="470" width="100" height="70" as="geometry" />
        </mxCell>
        <mxCell id="CHIV6Dw_ay6zXECjPHb4-63" value="" style="verticalAlign=top;align=left;spacingTop=8;spacingLeft=2;spacingRight=12;shape=cube;size=10;direction=south;fontStyle=4;html=1;whiteSpace=wrap;" parent="1" vertex="1">
          <mxGeometry x="250" y="470" width="100" height="70" as="geometry" />
        </mxCell>
        <mxCell id="CHIV6Dw_ay6zXECjPHb4-64" value="" style="verticalAlign=top;align=left;spacingTop=8;spacingLeft=2;spacingRight=12;shape=cube;size=10;direction=south;fontStyle=4;html=1;whiteSpace=wrap;" parent="1" vertex="1">
          <mxGeometry x="27.5" y="550" width="100" height="70" as="geometry" />
        </mxCell>
        <mxCell id="CHIV6Dw_ay6zXECjPHb4-65" value="" style="verticalAlign=top;align=left;spacingTop=8;spacingLeft=2;spacingRight=12;shape=cube;size=10;direction=south;fontStyle=4;html=1;whiteSpace=wrap;" parent="1" vertex="1">
          <mxGeometry x="140" y="550" width="100" height="70" as="geometry" />
        </mxCell>
        <mxCell id="CHIV6Dw_ay6zXECjPHb4-66" value="" style="verticalAlign=top;align=left;spacingTop=8;spacingLeft=2;spacingRight=12;shape=cube;size=10;direction=south;fontStyle=4;html=1;whiteSpace=wrap;" parent="1" vertex="1">
          <mxGeometry x="250" y="550" width="100" height="70" as="geometry" />
        </mxCell>
        <mxCell id="CHIV6Dw_ay6zXECjPHb4-67" value="Autenticação" style="text;whiteSpace=wrap;html=1;" parent="1" vertex="1">
          <mxGeometry x="32.5" y="490" width="90" height="40" as="geometry" />
        </mxCell>
        <mxCell id="CHIV6Dw_ay6zXECjPHb4-68" value="Clientes" style="text;whiteSpace=wrap;html=1;" parent="1" vertex="1">
          <mxGeometry x="145" y="490" width="80" height="40" as="geometry" />
        </mxCell>
        <mxCell id="CHIV6Dw_ay6zXECjPHb4-69" value="Quartos" style="text;html=1;align=center;verticalAlign=middle;resizable=0;points=[];autosize=1;strokeColor=none;fillColor=none;" parent="1" vertex="1">
          <mxGeometry x="257.5" y="490" width="70" height="30" as="geometry" />
        </mxCell>
        <mxCell id="CHIV6Dw_ay6zXECjPHb4-70" value="Reservas" style="text;whiteSpace=wrap;html=1;" parent="1" vertex="1">
          <mxGeometry x="37.5" y="570" width="80" height="40" as="geometry" />
        </mxCell>
        <mxCell id="CHIV6Dw_ay6zXECjPHb4-71" value="Pagamentos" style="text;whiteSpace=wrap;html=1;" parent="1" vertex="1">
          <mxGeometry x="145" y="570" width="100" height="40" as="geometry" />
        </mxCell>
        <mxCell id="CHIV6Dw_ay6zXECjPHb4-72" value="Funcionários" style="text;whiteSpace=wrap;html=1;" parent="1" vertex="1">
          <mxGeometry x="257.5" y="570" width="100" height="40" as="geometry" />
        </mxCell>
        <mxCell id="JSQiXHJAdav7Xx2NE6Rj-1" value="" style="verticalAlign=top;align=left;spacingTop=8;spacingLeft=2;spacingRight=12;shape=cube;size=10;direction=south;fontStyle=4;html=1;whiteSpace=wrap;" parent="1" vertex="1">
          <mxGeometry x="460" y="445" width="100" height="70" as="geometry" />
        </mxCell>
        <mxCell id="JSQiXHJAdav7Xx2NE6Rj-2" value="" style="verticalAlign=top;align=left;spacingTop=8;spacingLeft=2;spacingRight=12;shape=cube;size=10;direction=south;fontStyle=4;html=1;whiteSpace=wrap;" parent="1" vertex="1">
          <mxGeometry x="570" y="445" width="100" height="70" as="geometry" />
        </mxCell>
        <mxCell id="JSQiXHJAdav7Xx2NE6Rj-3" value="" style="verticalAlign=top;align=left;spacingTop=8;spacingLeft=2;spacingRight=12;shape=cube;size=10;direction=south;fontStyle=4;html=1;whiteSpace=wrap;" parent="1" vertex="1">
          <mxGeometry x="680" y="445" width="100" height="70" as="geometry" />
        </mxCell>
        <mxCell id="JSQiXHJAdav7Xx2NE6Rj-6" value="Docker&lt;div&gt;&amp;nbsp;containers&lt;/div&gt;" style="text;html=1;align=center;verticalAlign=middle;resizable=0;points=[];autosize=1;strokeColor=none;fillColor=none;" parent="1" vertex="1">
          <mxGeometry x="460" y="465" width="80" height="40" as="geometry" />
        </mxCell>
        <mxCell id="JSQiXHJAdav7Xx2NE6Rj-7" value="Monitoramento" style="text;html=1;align=center;verticalAlign=middle;resizable=0;points=[];autosize=1;strokeColor=none;fillColor=none;" parent="1" vertex="1">
          <mxGeometry x="565" y="470" width="100" height="30" as="geometry" />
        </mxCell>
        <mxCell id="JSQiXHJAdav7Xx2NE6Rj-8" value="Logging" style="text;html=1;align=center;verticalAlign=middle;resizable=0;points=[];autosize=1;strokeColor=none;fillColor=none;" parent="1" vertex="1">
          <mxGeometry x="690" y="470" width="70" height="30" as="geometry" />
        </mxCell>
        <mxCell id="JSQiXHJAdav7Xx2NE6Rj-15" value="" style="verticalAlign=top;align=left;spacingTop=8;spacingLeft=2;spacingRight=12;shape=cube;size=10;direction=south;fontStyle=4;html=1;whiteSpace=wrap;" parent="1" vertex="1">
          <mxGeometry x="560" y="240" width="360" height="140" as="geometry" />
        </mxCell>
        <mxCell id="JSQiXHJAdav7Xx2NE6Rj-16" value="" style="verticalAlign=top;align=left;spacingTop=8;spacingLeft=2;spacingRight=12;shape=cube;size=10;direction=south;fontStyle=4;html=1;whiteSpace=wrap;" parent="1" vertex="1">
          <mxGeometry x="570" y="280" width="70" height="40" as="geometry" />
        </mxCell>
        <mxCell id="JSQiXHJAdav7Xx2NE6Rj-17" value="" style="verticalAlign=top;align=left;spacingTop=8;spacingLeft=2;spacingRight=12;shape=cube;size=10;direction=south;fontStyle=4;html=1;whiteSpace=wrap;" parent="1" vertex="1">
          <mxGeometry x="660" y="280" width="70" height="40" as="geometry" />
        </mxCell>
        <mxCell id="JSQiXHJAdav7Xx2NE6Rj-18" value="" style="verticalAlign=top;align=left;spacingTop=8;spacingLeft=2;spacingRight=12;shape=cube;size=10;direction=south;fontStyle=4;html=1;whiteSpace=wrap;" parent="1" vertex="1">
          <mxGeometry x="750" y="280" width="70" height="40" as="geometry" />
        </mxCell>
        <mxCell id="JSQiXHJAdav7Xx2NE6Rj-19" value="" style="verticalAlign=top;align=left;spacingTop=8;spacingLeft=2;spacingRight=12;shape=cube;size=10;direction=south;fontStyle=4;html=1;whiteSpace=wrap;" parent="1" vertex="1">
          <mxGeometry x="570" y="330" width="90" height="40" as="geometry" />
        </mxCell>
        <mxCell id="JSQiXHJAdav7Xx2NE6Rj-20" value="" style="verticalAlign=top;align=left;spacingTop=8;spacingLeft=2;spacingRight=12;shape=cube;size=10;direction=south;fontStyle=4;html=1;whiteSpace=wrap;" parent="1" vertex="1">
          <mxGeometry x="675" y="330" width="135" height="40" as="geometry" />
        </mxCell>
        <mxCell id="JSQiXHJAdav7Xx2NE6Rj-21" value="Cliente" style="text;html=1;align=center;verticalAlign=middle;resizable=0;points=[];autosize=1;strokeColor=none;fillColor=none;" parent="1" vertex="1">
          <mxGeometry x="570" y="290" width="60" height="30" as="geometry" />
        </mxCell>
        <mxCell id="JSQiXHJAdav7Xx2NE6Rj-22" value="Quarto" style="text;html=1;align=center;verticalAlign=middle;resizable=0;points=[];autosize=1;strokeColor=none;fillColor=none;" parent="1" vertex="1">
          <mxGeometry x="660" y="290" width="60" height="30" as="geometry" />
        </mxCell>
        <mxCell id="JSQiXHJAdav7Xx2NE6Rj-23" value="Reserva" style="text;html=1;align=center;verticalAlign=middle;resizable=0;points=[];autosize=1;strokeColor=none;fillColor=none;" parent="1" vertex="1">
          <mxGeometry x="740" y="290" width="70" height="30" as="geometry" />
        </mxCell>
        <mxCell id="JSQiXHJAdav7Xx2NE6Rj-24" value="Pagamentos" style="text;html=1;align=center;verticalAlign=middle;resizable=0;points=[];autosize=1;strokeColor=none;fillColor=none;" parent="1" vertex="1">
          <mxGeometry x="560" y="340" width="90" height="30" as="geometry" />
        </mxCell>
        <mxCell id="JSQiXHJAdav7Xx2NE6Rj-25" value="Funcionarios" style="text;html=1;align=center;verticalAlign=middle;resizable=0;points=[];autosize=1;strokeColor=none;fillColor=none;" parent="1" vertex="1">
          <mxGeometry x="675" y="340" width="90" height="30" as="geometry" />
        </mxCell>
        <mxCell id="JSQiXHJAdav7Xx2NE6Rj-28" value="React" style="text;html=1;align=center;verticalAlign=middle;resizable=0;points=[];autosize=1;strokeColor=none;fillColor=none;" parent="1" vertex="1">
          <mxGeometry x="40" y="180" width="50" height="30" as="geometry" />
        </mxCell>
        <mxCell id="JSQiXHJAdav7Xx2NE6Rj-29" value="" style="verticalAlign=top;align=left;spacingTop=8;spacingLeft=2;spacingRight=12;shape=cube;size=10;direction=south;fontStyle=4;html=1;whiteSpace=wrap;" parent="1" vertex="1">
          <mxGeometry x="230" y="315" width="110" height="80" as="geometry" />
        </mxCell>
        <mxCell id="JSQiXHJAdav7Xx2NE6Rj-30" value="API Geteway" style="text;html=1;align=center;verticalAlign=middle;resizable=0;points=[];autosize=1;strokeColor=none;fillColor=none;" parent="1" vertex="1">
          <mxGeometry x="237.5" y="340" width="90" height="30" as="geometry" />
        </mxCell>
        <mxCell id="JSQiXHJAdav7Xx2NE6Rj-31" value="Java" style="text;html=1;align=center;verticalAlign=middle;resizable=0;points=[];autosize=1;strokeColor=none;fillColor=none;" parent="1" vertex="1">
          <mxGeometry x="30" y="430" width="50" height="30" as="geometry" />
        </mxCell>
        <mxCell id="JSQiXHJAdav7Xx2NE6Rj-32" value="&lt;span id=&quot;docs-internal-guid-c72a5a7e-7fff-d586-43f0-c532fbafad98&quot;&gt;&lt;span style=&quot;font-size: 11pt; font-family: Arial, sans-serif; color: rgb(0, 0, 0); background-color: transparent; font-variant-numeric: normal; font-variant-east-asian: normal; font-variant-alternates: normal; font-variant-position: normal; font-variant-emoji: normal; vertical-align: baseline; white-space: pre-wrap;&quot;&gt;&amp;nbsp;PostgreSQL&lt;/span&gt;&lt;/span&gt;" style="text;html=1;align=center;verticalAlign=middle;resizable=0;points=[];autosize=1;strokeColor=none;fillColor=none;" parent="1" vertex="1">
          <mxGeometry x="560" y="250" width="110" height="30" as="geometry" />
        </mxCell>
        <mxCell id="JSQiXHJAdav7Xx2NE6Rj-34" value="&lt;em data-end=&quot;940&quot; data-start=&quot;924&quot;&gt;Cloud Provider&lt;/em&gt;" style="text;html=1;align=center;verticalAlign=middle;resizable=0;points=[];autosize=1;strokeColor=none;fillColor=none;" parent="1" vertex="1">
          <mxGeometry x="445" y="410" width="100" height="30" as="geometry" />
        </mxCell>
        <mxCell id="JSQiXHJAdav7Xx2NE6Rj-35" value="" style="endArrow=none;dashed=1;html=1;rounded=0;exitX=0;exitY=0;exitDx=65;exitDy=62.5;exitPerimeter=0;entryX=0;entryY=0;entryDx=0;entryDy=100;entryPerimeter=0;" parent="1" source="CHIV6Dw_ay6zXECjPHb4-44" target="CHIV6Dw_ay6zXECjPHb4-48" edge="1">
          <mxGeometry width="50" height="50" relative="1" as="geometry">
            <mxPoint x="400" y="340" as="sourcePoint" />
            <mxPoint x="450" y="290" as="targetPoint" />
          </mxGeometry>
        </mxCell>
        <mxCell id="JSQiXHJAdav7Xx2NE6Rj-36" value="" style="endArrow=classic;html=1;rounded=0;entryX=0;entryY=0;entryDx=0;entryDy=100;entryPerimeter=0;" parent="1" target="CHIV6Dw_ay6zXECjPHb4-48" edge="1">
          <mxGeometry width="50" height="50" relative="1" as="geometry">
            <mxPoint x="140" y="200" as="sourcePoint" />
            <mxPoint x="450" y="290" as="targetPoint" />
          </mxGeometry>
        </mxCell>
        <mxCell id="JSQiXHJAdav7Xx2NE6Rj-37" value="" style="endArrow=none;dashed=1;html=1;dashPattern=1 3;strokeWidth=2;rounded=0;exitX=0;exitY=0;exitDx=65;exitDy=65;exitPerimeter=0;entryX=0;entryY=0;entryDx=0;entryDy=100;entryPerimeter=0;" parent="1" source="CHIV6Dw_ay6zXECjPHb4-46" target="CHIV6Dw_ay6zXECjPHb4-53" edge="1">
          <mxGeometry width="50" height="50" relative="1" as="geometry">
            <mxPoint x="400" y="340" as="sourcePoint" />
            <mxPoint x="450" y="290" as="targetPoint" />
          </mxGeometry>
        </mxCell>
        <mxCell id="JSQiXHJAdav7Xx2NE6Rj-38" value="" style="endArrow=classic;html=1;rounded=0;entryX=0;entryY=0;entryDx=0;entryDy=100;entryPerimeter=0;" parent="1" target="CHIV6Dw_ay6zXECjPHb4-53" edge="1">
          <mxGeometry width="50" height="50" relative="1" as="geometry">
            <mxPoint x="360" y="210" as="sourcePoint" />
            <mxPoint x="450" y="290" as="targetPoint" />
          </mxGeometry>
        </mxCell>
        <mxCell id="JSQiXHJAdav7Xx2NE6Rj-39" value="" style="endArrow=none;dashed=1;html=1;dashPattern=1 3;strokeWidth=2;rounded=0;exitX=0;exitY=0;exitDx=70;exitDy=110;exitPerimeter=0;entryX=0.47;entryY=1.029;entryDx=0;entryDy=0;entryPerimeter=0;" parent="1" source="CHIV6Dw_ay6zXECjPHb4-48" target="JSQiXHJAdav7Xx2NE6Rj-29" edge="1">
          <mxGeometry width="50" height="50" relative="1" as="geometry">
            <mxPoint x="400" y="340" as="sourcePoint" />
            <mxPoint x="450" y="290" as="targetPoint" />
          </mxGeometry>
        </mxCell>
        <mxCell id="JSQiXHJAdav7Xx2NE6Rj-40" value="" style="endArrow=classic;html=1;rounded=0;entryX=0;entryY=0;entryDx=45;entryDy=110;entryPerimeter=0;" parent="1" target="JSQiXHJAdav7Xx2NE6Rj-29" edge="1">
          <mxGeometry width="50" height="50" relative="1" as="geometry">
            <mxPoint x="210" y="340" as="sourcePoint" />
            <mxPoint x="450" y="290" as="targetPoint" />
            <Array as="points">
              <mxPoint x="220" y="350" />
            </Array>
          </mxGeometry>
        </mxCell>
        <mxCell id="JSQiXHJAdav7Xx2NE6Rj-41" value="" style="endArrow=none;dashed=1;html=1;dashPattern=1 3;strokeWidth=2;rounded=0;entryX=0;entryY=0;entryDx=70;entryDy=110;entryPerimeter=0;exitX=0;exitY=0;exitDx=0;exitDy=0;exitPerimeter=0;" parent="1" source="JSQiXHJAdav7Xx2NE6Rj-29" target="CHIV6Dw_ay6zXECjPHb4-53" edge="1">
          <mxGeometry width="50" height="50" relative="1" as="geometry">
            <mxPoint x="400" y="340" as="sourcePoint" />
            <mxPoint x="450" y="290" as="targetPoint" />
          </mxGeometry>
        </mxCell>
        <mxCell id="JSQiXHJAdav7Xx2NE6Rj-42" value="" style="endArrow=classic;html=1;rounded=0;entryX=0;entryY=0;entryDx=0;entryDy=0;entryPerimeter=0;" parent="1" target="JSQiXHJAdav7Xx2NE6Rj-29" edge="1">
          <mxGeometry width="50" height="50" relative="1" as="geometry">
            <mxPoint x="350" y="310" as="sourcePoint" />
            <mxPoint x="450" y="290" as="targetPoint" />
          </mxGeometry>
        </mxCell>
        <mxCell id="JSQiXHJAdav7Xx2NE6Rj-43" value="" style="endArrow=none;dashed=1;html=1;dashPattern=1 3;strokeWidth=2;rounded=0;entryX=1;entryY=1;entryDx=0;entryDy=0;entryPerimeter=0;exitX=-0.012;exitY=0.928;exitDx=0;exitDy=0;exitPerimeter=0;" parent="1" source="CHIV6Dw_ay6zXECjPHb4-60" target="JSQiXHJAdav7Xx2NE6Rj-29" edge="1">
          <mxGeometry width="50" height="50" relative="1" as="geometry">
            <mxPoint x="375" y="390" as="sourcePoint" />
            <mxPoint x="425" y="340" as="targetPoint" />
          </mxGeometry>
        </mxCell>
        <mxCell id="JSQiXHJAdav7Xx2NE6Rj-44" value="" style="endArrow=classic;html=1;rounded=0;" parent="1" edge="1">
          <mxGeometry width="50" height="50" relative="1" as="geometry">
            <mxPoint x="100" y="410" as="sourcePoint" />
            <mxPoint x="50" y="420" as="targetPoint" />
            <Array as="points">
              <mxPoint x="60" y="410" />
            </Array>
          </mxGeometry>
        </mxCell>
        <mxCell id="JSQiXHJAdav7Xx2NE6Rj-45" value="" style="endArrow=none;dashed=1;html=1;dashPattern=1 3;strokeWidth=2;rounded=0;entryX=1.016;entryY=0.114;entryDx=0;entryDy=0;entryPerimeter=0;" parent="1" target="JSQiXHJAdav7Xx2NE6Rj-15" edge="1">
          <mxGeometry width="50" height="50" relative="1" as="geometry">
            <mxPoint x="375" y="615" as="sourcePoint" />
            <mxPoint x="860" y="580" as="targetPoint" />
            <Array as="points">
              <mxPoint x="425" y="615" />
              <mxPoint x="840" y="570" />
            </Array>
          </mxGeometry>
        </mxCell>
        <mxCell id="JSQiXHJAdav7Xx2NE6Rj-46" value="" style="endArrow=classic;html=1;rounded=0;entryX=0.999;entryY=0.114;entryDx=0;entryDy=0;entryPerimeter=0;" parent="1" target="JSQiXHJAdav7Xx2NE6Rj-15" edge="1">
          <mxGeometry width="50" height="50" relative="1" as="geometry">
            <mxPoint x="870" y="420" as="sourcePoint" />
            <mxPoint x="450" y="290" as="targetPoint" />
          </mxGeometry>
        </mxCell>
        <mxCell id="JSQiXHJAdav7Xx2NE6Rj-47" value="" style="endArrow=none;dashed=1;html=1;dashPattern=1 3;strokeWidth=2;rounded=0;exitX=0;exitY=0;exitDx=100;exitDy=0;exitPerimeter=0;entryX=0;entryY=0;entryDx=75;entryDy=360;entryPerimeter=0;" parent="1" source="CHIV6Dw_ay6zXECjPHb4-60" target="CHIV6Dw_ay6zXECjPHb4-73" edge="1">
          <mxGeometry width="50" height="50" relative="1" as="geometry">
            <mxPoint x="400" y="340" as="sourcePoint" />
            <mxPoint x="450" y="290" as="targetPoint" />
          </mxGeometry>
        </mxCell>
        <mxCell id="JSQiXHJAdav7Xx2NE6Rj-48" value="" style="endArrow=classic;html=1;rounded=0;entryX=0;entryY=0;entryDx=75;entryDy=360;entryPerimeter=0;" parent="1" target="CHIV6Dw_ay6zXECjPHb4-73" edge="1">
          <mxGeometry width="50" height="50" relative="1" as="geometry">
            <mxPoint x="420" y="490" as="sourcePoint" />
            <mxPoint x="450" y="290" as="targetPoint" />
          </mxGeometry>
        </mxCell>
        <mxCell id="JSQiXHJAdav7Xx2NE6Rj-49" value="" style="endArrow=none;dashed=1;html=1;dashPattern=1 3;strokeWidth=2;rounded=0;exitX=0;exitY=0;exitDx=35;exitDy=0;exitPerimeter=0;entryX=0;entryY=0;entryDx=0;entryDy=350;entryPerimeter=0;" parent="1" source="JSQiXHJAdav7Xx2NE6Rj-29" target="CHIV6Dw_ay6zXECjPHb4-73" edge="1">
          <mxGeometry width="50" height="50" relative="1" as="geometry">
            <mxPoint x="400" y="340" as="sourcePoint" />
            <mxPoint x="450" y="290" as="targetPoint" />
          </mxGeometry>
        </mxCell>
        <mxCell id="JSQiXHJAdav7Xx2NE6Rj-50" value="" style="endArrow=classic;html=1;rounded=0;entryX=0;entryY=0;entryDx=0;entryDy=350;entryPerimeter=0;" parent="1" target="CHIV6Dw_ay6zXECjPHb4-73" edge="1">
          <mxGeometry width="50" height="50" relative="1" as="geometry">
            <mxPoint x="430" y="390" as="sourcePoint" />
            <mxPoint x="450" y="290" as="targetPoint" />
          </mxGeometry>
        </mxCell>
        <mxCell id="JSQiXHJAdav7Xx2NE6Rj-51" value="" style="endArrow=none;dashed=1;html=1;dashPattern=1 3;strokeWidth=2;rounded=0;entryX=0.376;entryY=0.999;entryDx=0;entryDy=0;entryPerimeter=0;exitX=0.3;exitY=-0.002;exitDx=0;exitDy=0;exitPerimeter=0;" parent="1" source="CHIV6Dw_ay6zXECjPHb4-60" target="CHIV6Dw_ay6zXECjPHb4-73" edge="1">
          <mxGeometry width="50" height="50" relative="1" as="geometry">
            <mxPoint x="400" y="440" as="sourcePoint" />
            <mxPoint x="450" y="390" as="targetPoint" />
          </mxGeometry>
        </mxCell>
        <mxCell id="JSQiXHJAdav7Xx2NE6Rj-52" value="" style="endArrow=classic;html=1;rounded=0;" parent="1" edge="1">
          <mxGeometry width="50" height="50" relative="1" as="geometry">
            <mxPoint x="400" y="470" as="sourcePoint" />
            <mxPoint x="370" y="480" as="targetPoint" />
          </mxGeometry>
        </mxCell>
        <mxCell id="JSQiXHJAdav7Xx2NE6Rj-53" value="" style="endArrow=none;dashed=1;html=1;dashPattern=1 3;strokeWidth=2;rounded=0;exitX=-0.001;exitY=0.803;exitDx=0;exitDy=0;exitPerimeter=0;entryX=0;entryY=0;entryDx=75;entryDy=360;entryPerimeter=0;" parent="1" source="CHIV6Dw_ay6zXECjPHb4-73" target="JSQiXHJAdav7Xx2NE6Rj-15" edge="1">
          <mxGeometry width="50" height="50" relative="1" as="geometry">
            <mxPoint x="400" y="340" as="sourcePoint" />
            <mxPoint x="450" y="290" as="targetPoint" />
          </mxGeometry>
        </mxCell>
        <mxCell id="JSQiXHJAdav7Xx2NE6Rj-54" value="" style="endArrow=classic;html=1;rounded=0;entryX=0;entryY=0;entryDx=75;entryDy=360;entryPerimeter=0;" parent="1" target="JSQiXHJAdav7Xx2NE6Rj-15" edge="1">
          <mxGeometry width="50" height="50" relative="1" as="geometry">
            <mxPoint x="540" y="350" as="sourcePoint" />
            <mxPoint x="450" y="290" as="targetPoint" />
          </mxGeometry>
        </mxCell>
      </root>
    </mxGraphModel>
  </diagram>
  <diagram id="ArFhpH6ML68IfqMD4Til" name="Classes">
    <mxGraphModel dx="1900" dy="1709" grid="1" gridSize="10" guides="1" tooltips="1" connect="1" arrows="1" fold="1" page="1" pageScale="1" pageWidth="850" pageHeight="1100" math="0" shadow="0">
      <root>
        <mxCell id="0" />
        <mxCell id="1" parent="0" />
        <mxCell id="LO9e7pwapA_s6tjgImR0-1" value="&lt;p style=&quot;margin:0px;margin-top:4px;text-align:center;&quot;&gt;Cliente&lt;/p&gt;&lt;hr size=&quot;1&quot; style=&quot;border-style:solid;&quot;&gt;&amp;nbsp;-&amp;nbsp;iidCliente: int&lt;br&gt;&lt;div&gt;&lt;hr size=&quot;1&quot; style=&quot;border-style:solid;&quot;&gt;&lt;span style=&quot;background-color: transparent; color: light-dark(rgb(0, 0, 0), rgb(255, 255, 255));&quot;&gt;&amp;nbsp;+ cadastrarCliente()&lt;/span&gt;&lt;br&gt;&lt;span style=&quot;background-color: transparent; color: light-dark(rgb(0, 0, 0), rgb(255, 255, 255));&quot;&gt;&amp;nbsp;+ consultarReservas()&lt;br&gt;&lt;/span&gt;&lt;span style=&quot;background-color: transparent; color: light-dark(rgb(0, 0, 0), rgb(255, 255, 255));&quot;&gt;&amp;nbsp;+ consultarQuartosDisponiveis()&lt;/span&gt;&lt;/div&gt;&lt;div&gt;&amp;nbsp;+ consultarPagamento()&lt;span style=&quot;background-color: transparent; color: light-dark(rgb(0, 0, 0), rgb(255, 255, 255));&quot;&gt;&lt;/span&gt;&lt;/div&gt;" style="verticalAlign=top;align=left;overflow=fill;html=1;whiteSpace=wrap;" parent="1" vertex="1">
          <mxGeometry x="70" width="195" height="130" as="geometry" />
        </mxCell>
        <mxCell id="LO9e7pwapA_s6tjgImR0-2" value="&lt;p style=&quot;margin:0px;margin-top:4px;text-align:center;&quot;&gt;Quarto&lt;/p&gt;&lt;hr size=&quot;1&quot; style=&quot;border-style:solid;&quot;&gt;&amp;nbsp;- idQuarto: int&lt;br&gt;&amp;nbsp;-&amp;nbsp;&lt;span style=&quot;background-color: transparent; color: light-dark(rgb(0, 0, 0), rgb(255, 255, 255));&quot;&gt;numero: String&lt;/span&gt;&lt;br&gt;&amp;nbsp;-&amp;nbsp;&lt;span style=&quot;background-color: transparent; color: light-dark(rgb(0, 0, 0), rgb(255, 255, 255));&quot;&gt;tipo: String&lt;/span&gt;&lt;br&gt;&amp;nbsp;-&amp;nbsp;&lt;span style=&quot;color: light-dark(rgb(0, 0, 0), rgb(255, 255, 255)); background-color: transparent;&quot;&gt;disponibilidade: boolean&lt;/span&gt;&amp;nbsp;&lt;div&gt;&amp;nbsp;-&amp;nbsp;&lt;span style=&quot;background-color: transparent; color: light-dark(rgb(0, 0, 0), rgb(255, 255, 255));&quot;&gt;preco: float&lt;/span&gt;&lt;br&gt;&lt;div&gt;&lt;hr size=&quot;1&quot; style=&quot;border-style:solid;&quot;&gt;&lt;span style=&quot;background-color: transparent; color: light-dark(rgb(0, 0, 0), rgb(255, 255, 255));&quot;&gt;&amp;nbsp;&lt;/span&gt;&lt;span style=&quot;background-color: transparent; color: light-dark(rgb(0, 0, 0), rgb(255, 255, 255));&quot;&gt;&amp;nbsp;+&amp;nbsp;&lt;/span&gt;consultarDisponibilidade()&lt;br&gt;&lt;/div&gt;&lt;/div&gt;" style="verticalAlign=top;align=left;overflow=fill;html=1;whiteSpace=wrap;" parent="1" vertex="1">
          <mxGeometry x="490" y="240" width="195" height="150" as="geometry" />
        </mxCell>
        <mxCell id="LO9e7pwapA_s6tjgImR0-3" value="&lt;p style=&quot;margin:0px;margin-top:4px;text-align:center;&quot;&gt;Reserva&lt;/p&gt;&lt;hr size=&quot;1&quot; style=&quot;border-style:solid;&quot;&gt;&lt;span style=&quot;background-color: transparent; color: light-dark(rgb(0, 0, 0), rgb(255, 255, 255));&quot;&gt;&amp;nbsp;&lt;/span&gt;- idReserva: int&lt;br&gt;&lt;span style=&quot;background-color: transparent; color: light-dark(rgb(0, 0, 0), rgb(255, 255, 255));&quot;&gt;&amp;nbsp;&lt;/span&gt;-&amp;nbsp;&lt;span style=&quot;background-color: transparent; color: light-dark(rgb(0, 0, 0), rgb(255, 255, 255));&quot;&gt;dataReserva: Date&lt;/span&gt;&lt;br&gt;&lt;span style=&quot;background-color: transparent; color: light-dark(rgb(0, 0, 0), rgb(255, 255, 255));&quot;&gt;&amp;nbsp;&lt;/span&gt;-&amp;nbsp;&lt;span style=&quot;background-color: transparent; color: light-dark(rgb(0, 0, 0), rgb(255, 255, 255));&quot;&gt;dataCheckin: Date&lt;/span&gt;&lt;br&gt;&amp;nbsp;-&amp;nbsp;&lt;span style=&quot;background-color: transparent; color: light-dark(rgb(0, 0, 0), rgb(255, 255, 255));&quot;&gt;dataCheckout: Date&lt;/span&gt;&lt;div&gt;&lt;code style=&quot;color: light-dark(rgb(0, 0, 0), rgb(255, 255, 255)); background-color: transparent;&quot; data-end=&quot;1289&quot; data-start=&quot;1273&quot;&gt;&lt;span style=&quot;font-family: Helvetica;&quot;&gt;&amp;nbsp;-&amp;nbsp;&lt;/span&gt;status: String&lt;/code&gt;&lt;span style=&quot;color: light-dark(rgb(0, 0, 0), rgb(255, 255, 255)); background-color: transparent;&quot;&gt;&amp;nbsp;&lt;/span&gt;&lt;br&gt;&lt;span style=&quot;background-color: transparent; color: light-dark(rgb(0, 0, 0), rgb(255, 255, 255));&quot;&gt;&amp;nbsp;&lt;/span&gt;-&amp;nbsp;&lt;span style=&quot;background-color: transparent; color: light-dark(rgb(0, 0, 0), rgb(255, 255, 255));&quot;&gt;cliente: Cliente&lt;/span&gt;&lt;br&gt;&lt;span style=&quot;background-color: transparent; color: light-dark(rgb(0, 0, 0), rgb(255, 255, 255));&quot;&gt;&amp;nbsp;&lt;/span&gt;-&amp;nbsp;&lt;span style=&quot;background-color: transparent; color: light-dark(rgb(0, 0, 0), rgb(255, 255, 255));&quot;&gt;quarto: Quarto&lt;/span&gt;&lt;br&gt;&lt;div&gt;&lt;hr size=&quot;1&quot; style=&quot;border-style:solid;&quot;&gt;&lt;/div&gt;&lt;span style=&quot;background-color: transparent; color: light-dark(rgb(0, 0, 0), rgb(255, 255, 255));&quot;&gt;&amp;nbsp;+&amp;nbsp;&lt;/span&gt;confirmarReserva()&lt;br&gt;&lt;span style=&quot;background-color: transparent; color: light-dark(rgb(0, 0, 0), rgb(255, 255, 255));&quot;&gt;&amp;nbsp;+&amp;nbsp;&lt;/span&gt;cancelarReserva()&lt;br&gt;&lt;span style=&quot;background-color: transparent; color: light-dark(rgb(0, 0, 0), rgb(255, 255, 255));&quot;&gt;&amp;nbsp;+&amp;nbsp;&lt;/span&gt;realizarCheckIn()&lt;/div&gt;&lt;div&gt;&lt;div&gt;&amp;nbsp;+ realizarCheckOut()&lt;/div&gt;&lt;/div&gt;" style="verticalAlign=top;align=left;overflow=fill;html=1;whiteSpace=wrap;" parent="1" vertex="1">
          <mxGeometry x="210" y="210" width="195" height="210" as="geometry" />
        </mxCell>
        <mxCell id="LO9e7pwapA_s6tjgImR0-4" value="&lt;p style=&quot;margin:0px;margin-top:4px;text-align:center;&quot;&gt;Pagamento&lt;/p&gt;&lt;hr size=&quot;1&quot; style=&quot;border-style:solid;&quot;&gt;&lt;span style=&quot;background-color: transparent; color: light-dark(rgb(0, 0, 0), rgb(255, 255, 255));&quot;&gt;&amp;nbsp;&lt;/span&gt;- idPagamento: int&lt;br&gt;&amp;nbsp;-&amp;nbsp;&lt;span style=&quot;color: light-dark(rgb(0, 0, 0), rgb(255, 255, 255)); background-color: transparent;&quot;&gt;dataPagamento: Date&lt;/span&gt;&lt;span style=&quot;background-color: transparent; color: light-dark(rgb(0, 0, 0), rgb(255, 255, 255));&quot;&gt;&amp;nbsp;&lt;/span&gt;&lt;div&gt;&amp;nbsp;- valorPago: float&lt;br&gt;&lt;span style=&quot;background-color: transparent; color: light-dark(rgb(0, 0, 0), rgb(255, 255, 255));&quot;&gt;&amp;nbsp;-&amp;nbsp;&lt;/span&gt;statusPagamento: String&lt;span style=&quot;background-color: transparent; color: light-dark(rgb(0, 0, 0), rgb(255, 255, 255));&quot;&gt;&amp;nbsp;&lt;/span&gt;&lt;br&gt;&lt;span style=&quot;background-color: transparent; color: light-dark(rgb(0, 0, 0), rgb(255, 255, 255));&quot;&gt;&amp;nbsp;&lt;/span&gt;-&amp;nbsp;&lt;span style=&quot;background-color: transparent; color: light-dark(rgb(0, 0, 0), rgb(255, 255, 255));&quot;&gt;reserva: Reserva&lt;/span&gt;&lt;br&gt;&lt;div&gt;&lt;hr size=&quot;1&quot; style=&quot;border-style:solid;&quot;&gt;&lt;/div&gt;&lt;span style=&quot;background-color: transparent; color: light-dark(rgb(0, 0, 0), rgb(255, 255, 255));&quot;&gt;&amp;nbsp;+ realizarPagamento()&lt;/span&gt;&lt;br&gt;&lt;span style=&quot;background-color: transparent; color: light-dark(rgb(0, 0, 0), rgb(255, 255, 255));&quot;&gt;&amp;nbsp;+ consultarPagamento()&lt;/span&gt;&lt;br&gt;&lt;span style=&quot;background-color: transparent; color: light-dark(rgb(0, 0, 0), rgb(255, 255, 255));&quot;&gt;&amp;nbsp;+ cancelarPagamento()&lt;/span&gt;&lt;br&gt;&lt;br&gt;&lt;br&gt;&lt;div&gt;&lt;br&gt;&lt;/div&gt;&lt;/div&gt;" style="verticalAlign=top;align=left;overflow=fill;html=1;whiteSpace=wrap;" parent="1" vertex="1">
          <mxGeometry x="220" y="510" width="195" height="180" as="geometry" />
        </mxCell>
        <mxCell id="LO9e7pwapA_s6tjgImR0-5" value="&lt;p style=&quot;margin:0px;margin-top:4px;text-align:center;&quot;&gt;Funcionario&lt;/p&gt;&lt;hr size=&quot;1&quot; style=&quot;border-style:solid;&quot;&gt;&lt;span style=&quot;background-color: transparent; color: light-dark(rgb(0, 0, 0), rgb(255, 255, 255));&quot;&gt;&amp;nbsp;&lt;/span&gt;-&amp;nbsp;idFuncionario: int&lt;br&gt;&lt;div&gt;&lt;hr size=&quot;1&quot; style=&quot;border-style:solid;&quot;&gt;&lt;/div&gt;&lt;span style=&quot;background-color: transparent; color: light-dark(rgb(0, 0, 0), rgb(255, 255, 255));&quot;&gt;&amp;nbsp;+ cadastrarCliente()&lt;/span&gt;&lt;br&gt;&lt;span style=&quot;background-color: transparent; color: light-dark(rgb(0, 0, 0), rgb(255, 255, 255));&quot;&gt;&amp;nbsp;+ cadastrarQuarto()&lt;/span&gt;&lt;br&gt;&lt;span style=&quot;background-color: transparent; color: light-dark(rgb(0, 0, 0), rgb(255, 255, 255));&quot;&gt;&amp;nbsp;+ cadastrarFuncionario()&lt;/span&gt;&lt;br&gt;&lt;span style=&quot;background-color: transparent; color: light-dark(rgb(0, 0, 0), rgb(255, 255, 255));&quot;&gt;&amp;nbsp;+ consultarReservas()&lt;/span&gt;&lt;br&gt;&lt;span style=&quot;background-color: transparent; color: light-dark(rgb(0, 0, 0), rgb(255, 255, 255));&quot;&gt;&amp;nbsp;+ consultarClientes()&lt;/span&gt;&lt;br&gt;&lt;span style=&quot;background-color: transparent; color: light-dark(rgb(0, 0, 0), rgb(255, 255, 255));&quot;&gt;&amp;nbsp;+ consultarQuartos()&lt;/span&gt;&lt;br&gt;&lt;br&gt;&lt;br&gt;&lt;br&gt;&lt;br&gt;&lt;br&gt;&lt;br&gt;&lt;br&gt;&lt;div&gt;&lt;br&gt;&lt;/div&gt;" style="verticalAlign=top;align=left;overflow=fill;html=1;whiteSpace=wrap;" parent="1" vertex="1">
          <mxGeometry x="360" width="195" height="160" as="geometry" />
        </mxCell>
        <mxCell id="LO9e7pwapA_s6tjgImR0-6" value="&lt;p style=&quot;margin:0px;margin-top:4px;text-align:center;&quot;&gt;SistemaHotel&lt;/p&gt;&lt;hr size=&quot;1&quot; style=&quot;border-style:solid;&quot;&gt;&lt;span style=&quot;background-color: transparent; color: light-dark(rgb(0, 0, 0), rgb(255, 255, 255));&quot;&gt;&amp;nbsp;&lt;/span&gt;-&amp;nbsp;&lt;span style=&quot;background-color: transparent; color: light-dark(rgb(0, 0, 0), rgb(255, 255, 255));&quot;&gt;clientes: List&amp;lt;Cliente&amp;gt;&lt;/span&gt;&lt;br&gt;&lt;span style=&quot;background-color: transparent; color: light-dark(rgb(0, 0, 0), rgb(255, 255, 255));&quot;&gt;&amp;nbsp;&lt;/span&gt;-&amp;nbsp;&lt;span style=&quot;background-color: transparent; color: light-dark(rgb(0, 0, 0), rgb(255, 255, 255));&quot;&gt;quartos: List&amp;lt;Quarto&amp;gt;&lt;/span&gt;&lt;br&gt;&lt;span style=&quot;background-color: transparent; color: light-dark(rgb(0, 0, 0), rgb(255, 255, 255));&quot;&gt;&amp;nbsp;&lt;/span&gt;-&amp;nbsp;&lt;span style=&quot;background-color: transparent; color: light-dark(rgb(0, 0, 0), rgb(255, 255, 255));&quot;&gt;reservas: List&amp;lt;Reserva&amp;gt;&lt;/span&gt;&lt;div&gt;&amp;nbsp;&lt;span style=&quot;background-color: transparent; color: light-dark(rgb(0, 0, 0), rgb(255, 255, 255));&quot;&gt;-&amp;nbsp;&lt;/span&gt;&lt;span style=&quot;background-color: transparent; color: light-dark(rgb(0, 0, 0), rgb(255, 255, 255));&quot;&gt;pagamentos: List&amp;lt;Pagamento&amp;gt;&lt;/span&gt;&lt;/div&gt;&lt;div&gt;&lt;span style=&quot;background-color: transparent; color: light-dark(rgb(0, 0, 0), rgb(255, 255, 255));&quot;&gt;&amp;nbsp;&lt;/span&gt;-&amp;nbsp;&lt;span style=&quot;background-color: transparent; color: light-dark(rgb(0, 0, 0), rgb(255, 255, 255));&quot;&gt;funcionarios: List&amp;lt;Funcionario&amp;gt;&lt;/span&gt;&lt;br&gt;&lt;div&gt;&lt;hr size=&quot;1&quot; style=&quot;border-style:solid;&quot;&gt;&lt;/div&gt;&lt;span style=&quot;background-color: transparent; color: light-dark(rgb(0, 0, 0), rgb(255, 255, 255));&quot; data-end=&quot;688&quot; data-start=&quot;650&quot;&gt;&amp;nbsp;+ cadastrarCliente(cliente: Cliente)&lt;/span&gt;&lt;br&gt;&lt;span style=&quot;background-color: transparent; color: light-dark(rgb(0, 0, 0), rgb(255, 255, 255));&quot; data-end=&quot;726&quot; data-start=&quot;691&quot;&gt;&amp;nbsp;+ cadastrarQuarto(quarto: Quarto)&lt;/span&gt;&lt;br&gt;&lt;span style=&quot;background-color: transparent; color: light-dark(rgb(0, 0, 0), rgb(255, 255, 255));&quot; data-end=&quot;779&quot; data-start=&quot;729&quot;&gt;&amp;nbsp;+ cadastrarFuncionario(funcionario: Funcionario)&lt;/span&gt;&lt;br&gt;&lt;span style=&quot;background-color: transparent; color: light-dark(rgb(0, 0, 0), rgb(255, 255, 255));&quot; data-end=&quot;815&quot; data-start=&quot;782&quot;&gt;&amp;nbsp;+ consultarQuartosDisponiveis()&lt;/span&gt;&lt;br&gt;&lt;span style=&quot;background-color: transparent; color: light-dark(rgb(0, 0, 0), rgb(255, 255, 255));&quot; data-end=&quot;871&quot; data-start=&quot;818&quot;&gt;&amp;nbsp;+ realizarReserva(cliente: Cliente, quarto: Quarto)&lt;/span&gt;&lt;br&gt;&lt;span style=&quot;background-color: transparent; color: light-dark(rgb(0, 0, 0), rgb(255, 255, 255));&quot; data-end=&quot;913&quot; data-start=&quot;874&quot;&gt;&amp;nbsp;+ consultarReservas(cliente: Cliente)&lt;/span&gt;&lt;br&gt;&lt;span style=&quot;background-color: transparent; color: light-dark(rgb(0, 0, 0), rgb(255, 255, 255));&quot; data-end=&quot;969&quot; data-start=&quot;916&quot;&gt;&amp;nbsp;+ realizarPagamento(reserva: Reserva, valor: float)&lt;/span&gt;&lt;br&gt;&lt;span style=&quot;background-color: transparent; color: light-dark(rgb(0, 0, 0), rgb(255, 255, 255));&quot; data-end=&quot;1013&quot; data-start=&quot;972&quot;&gt;&amp;nbsp;+ consultarPagamentos(reserva: Reserva)&lt;/span&gt;&lt;br&gt;&lt;br&gt;&lt;br&gt;&lt;br&gt;&lt;br&gt;&lt;br&gt;&lt;br&gt;&lt;br&gt;&lt;br&gt;&lt;br&gt;&lt;div&gt;&lt;br&gt;&lt;/div&gt;&lt;/div&gt;" style="verticalAlign=top;align=left;overflow=fill;html=1;whiteSpace=wrap;" parent="1" vertex="1">
          <mxGeometry x="-180" y="195" width="322.5" height="240" as="geometry" />
        </mxCell>
        <mxCell id="PvAhWyIRGnqKGaANwSzF-1" value="&lt;p style=&quot;margin:0px;margin-top:4px;text-align:center;&quot;&gt;Pessoa&lt;/p&gt;&lt;hr size=&quot;1&quot; style=&quot;border-style:solid;&quot;&gt;&amp;nbsp;-&amp;nbsp;i&lt;span style=&quot;background-color: transparent; color: light-dark(rgb(0, 0, 0), rgb(255, 255, 255));&quot;&gt;d: int&lt;/span&gt;&lt;br&gt;&amp;nbsp;-&amp;nbsp;&lt;span style=&quot;background-color: transparent; color: light-dark(rgb(0, 0, 0), rgb(255, 255, 255));&quot;&gt;nome: String&lt;/span&gt;&lt;br&gt;&lt;span style=&quot;background-color: transparent; color: light-dark(rgb(0, 0, 0), rgb(255, 255, 255));&quot;&gt;&amp;nbsp;&lt;/span&gt;-&amp;nbsp;&lt;span style=&quot;background-color: transparent; color: light-dark(rgb(0, 0, 0), rgb(255, 255, 255));&quot;&gt;email: String&lt;/span&gt;&lt;br&gt;&lt;span style=&quot;background-color: transparent; color: light-dark(rgb(0, 0, 0), rgb(255, 255, 255));&quot;&gt;&amp;nbsp;&lt;/span&gt;-&amp;nbsp;&lt;span style=&quot;background-color: transparent; color: light-dark(rgb(0, 0, 0), rgb(255, 255, 255));&quot;&gt;telefone: String&lt;/span&gt;&lt;div&gt;&amp;nbsp;-&amp;nbsp;dataCadastro: Date&lt;br&gt;&lt;div&gt;&lt;hr size=&quot;1&quot; style=&quot;border-style:solid;&quot;&gt;&lt;span style=&quot;background-color: transparent; color: light-dark(rgb(0, 0, 0), rgb(255, 255, 255));&quot;&gt;&amp;nbsp;+&amp;nbsp;&lt;/span&gt;cadastrar()&lt;br&gt;&lt;span style=&quot;background-color: transparent; color: light-dark(rgb(0, 0, 0), rgb(255, 255, 255));&quot;&gt;&amp;nbsp;+&amp;nbsp;&lt;/span&gt;consultarDados()&lt;/div&gt;&lt;/div&gt;" style="verticalAlign=top;align=left;overflow=fill;html=1;whiteSpace=wrap;" vertex="1" parent="1">
          <mxGeometry x="220" y="-270" width="195" height="160" as="geometry" />
        </mxCell>
        <mxCell id="PvAhWyIRGnqKGaANwSzF-4" value="" style="curved=1;endArrow=classic;html=1;rounded=0;exitX=0.5;exitY=0;exitDx=0;exitDy=0;entryX=0.25;entryY=1;entryDx=0;entryDy=0;" edge="1" parent="1" source="LO9e7pwapA_s6tjgImR0-1" target="PvAhWyIRGnqKGaANwSzF-1">
          <mxGeometry width="50" height="50" relative="1" as="geometry">
            <mxPoint x="310" y="-50" as="sourcePoint" />
            <mxPoint x="360" y="-100" as="targetPoint" />
            <Array as="points">
              <mxPoint x="200" y="-40" />
              <mxPoint x="260" y="-90" />
            </Array>
          </mxGeometry>
        </mxCell>
        <mxCell id="PvAhWyIRGnqKGaANwSzF-7" value="" style="curved=1;endArrow=classic;html=1;rounded=0;entryX=0.75;entryY=1;entryDx=0;entryDy=0;exitX=0.5;exitY=0;exitDx=0;exitDy=0;" edge="1" parent="1" source="LO9e7pwapA_s6tjgImR0-5" target="PvAhWyIRGnqKGaANwSzF-1">
          <mxGeometry width="50" height="50" relative="1" as="geometry">
            <mxPoint x="450" y="-40" as="sourcePoint" />
            <mxPoint x="500" y="-90" as="targetPoint" />
            <Array as="points">
              <mxPoint x="410" y="-30" />
              <mxPoint x="450" y="-90" />
            </Array>
          </mxGeometry>
        </mxCell>
        <mxCell id="PvAhWyIRGnqKGaANwSzF-11" value="" style="curved=1;endArrow=classic;html=1;rounded=0;exitX=0.5;exitY=1;exitDx=0;exitDy=0;entryX=0.5;entryY=0;entryDx=0;entryDy=0;" edge="1" parent="1" source="LO9e7pwapA_s6tjgImR0-3" target="LO9e7pwapA_s6tjgImR0-4">
          <mxGeometry width="50" height="50" relative="1" as="geometry">
            <mxPoint x="505" y="510" as="sourcePoint" />
            <mxPoint x="555" y="460" as="targetPoint" />
            <Array as="points">
              <mxPoint x="308" y="470" />
            </Array>
          </mxGeometry>
        </mxCell>
        <mxCell id="PvAhWyIRGnqKGaANwSzF-12" value="" style="curved=1;endArrow=classic;html=1;rounded=0;entryX=1;entryY=0.5;entryDx=0;entryDy=0;exitX=0;exitY=0.5;exitDx=0;exitDy=0;" edge="1" parent="1" source="LO9e7pwapA_s6tjgImR0-2" target="LO9e7pwapA_s6tjgImR0-3">
          <mxGeometry width="50" height="50" relative="1" as="geometry">
            <mxPoint x="510" y="485" as="sourcePoint" />
            <mxPoint x="560" y="435" as="targetPoint" />
            <Array as="points">
              <mxPoint x="440" y="320" />
              <mxPoint x="450" y="330" />
            </Array>
          </mxGeometry>
        </mxCell>
        <mxCell id="PvAhWyIRGnqKGaANwSzF-14" value="" style="curved=1;endArrow=classic;html=1;rounded=0;exitX=0.5;exitY=1;exitDx=0;exitDy=0;entryX=0.548;entryY=0.009;entryDx=0;entryDy=0;entryPerimeter=0;" edge="1" parent="1" source="LO9e7pwapA_s6tjgImR0-1" target="LO9e7pwapA_s6tjgImR0-3">
          <mxGeometry width="50" height="50" relative="1" as="geometry">
            <mxPoint x="310" y="150" as="sourcePoint" />
            <mxPoint x="360" y="100" as="targetPoint" />
            <Array as="points">
              <mxPoint x="200" y="160" />
              <mxPoint x="260" y="160" />
              <mxPoint x="240" y="170" />
            </Array>
          </mxGeometry>
        </mxCell>
      </root>
    </mxGraphModel>
  </diagram>
  <diagram id="dUCXldViF70LoQ9fuH9W" name="Caso de Uso">
    <mxGraphModel dx="1900" dy="609" grid="1" gridSize="10" guides="1" tooltips="1" connect="1" arrows="1" fold="1" page="1" pageScale="1" pageWidth="850" pageHeight="1100" math="0" shadow="0">
      <root>
        <mxCell id="0" />
        <mxCell id="1" parent="0" />
        <mxCell id="rv91aPTuUE2_OIJIuhbl-3" value="Funcionário" style="shape=umlActor;verticalLabelPosition=bottom;verticalAlign=top;html=1;" parent="1" vertex="1">
          <mxGeometry x="1040" y="880" width="30" height="60" as="geometry" />
        </mxCell>
        <mxCell id="oggik_bEwYG1llyxKtNg-1" value="" style="rounded=1;whiteSpace=wrap;html=1;" vertex="1" parent="1">
          <mxGeometry x="70" y="590" width="765" height="780" as="geometry" />
        </mxCell>
        <mxCell id="oggik_bEwYG1llyxKtNg-2" value="Cadastrar-se" style="ellipse;whiteSpace=wrap;html=1;" vertex="1" parent="1">
          <mxGeometry x="156.89" y="630" width="153.11" height="60" as="geometry" />
        </mxCell>
        <mxCell id="oggik_bEwYG1llyxKtNg-3" value="Consultar quartos disponíveis por data" style="ellipse;whiteSpace=wrap;html=1;" vertex="1" parent="1">
          <mxGeometry x="150.95" y="710" width="170.3" height="70" as="geometry" />
        </mxCell>
        <mxCell id="oggik_bEwYG1llyxKtNg-4" value="Realizar pagamento da reserva" style="ellipse;whiteSpace=wrap;html=1;" vertex="1" parent="1">
          <mxGeometry x="141.88" y="880" width="156.25" height="60" as="geometry" />
        </mxCell>
        <mxCell id="oggik_bEwYG1llyxKtNg-5" value="&lt;li class=&quot;&quot; data-end=&quot;1084&quot; data-start=&quot;1049&quot;&gt;&lt;p class=&quot;&quot; data-end=&quot;1084&quot; data-start=&quot;1051&quot;&gt;&lt;span data-end=&quot;1084&quot; data-start=&quot;1051&quot;&gt;Consultar reservas anteriores&lt;/span&gt;&lt;/p&gt;&lt;/li&gt;" style="ellipse;whiteSpace=wrap;html=1;align=center;" vertex="1" parent="1">
          <mxGeometry x="141.89000000000001" y="960" width="158.11" height="60" as="geometry" />
        </mxCell>
        <mxCell id="oggik_bEwYG1llyxKtNg-6" value="Consultar reserva atual" style="ellipse;whiteSpace=wrap;html=1;align=center;" vertex="1" parent="1">
          <mxGeometry x="137.68" y="1040" width="156.23" height="60" as="geometry" />
        </mxCell>
        <mxCell id="oggik_bEwYG1llyxKtNg-7" value="&lt;span style=&quot;background-color: transparent; color: light-dark(rgb(0, 0, 0), rgb(255, 255, 255));&quot;&gt;Fazer check-in online&lt;/span&gt;" style="ellipse;whiteSpace=wrap;html=1;align=center;" vertex="1" parent="1">
          <mxGeometry x="156.89" y="1200" width="136.23" height="50" as="geometry" />
        </mxCell>
        <mxCell id="oggik_bEwYG1llyxKtNg-8" value="&lt;span style=&quot;background-color: transparent; color: light-dark(rgb(0, 0, 0), rgb(255, 255, 255));&quot;&gt;Fazer check-out online&lt;/span&gt;" style="ellipse;whiteSpace=wrap;html=1;align=center;" vertex="1" parent="1">
          <mxGeometry x="150.95" y="1270" width="138.12" height="60" as="geometry" />
        </mxCell>
        <mxCell id="oggik_bEwYG1llyxKtNg-9" value="Cancelar reserva" style="ellipse;whiteSpace=wrap;html=1;align=center;" vertex="1" parent="1">
          <mxGeometry x="141.73" y="1130" width="152.18" height="50" as="geometry" />
        </mxCell>
        <mxCell id="oggik_bEwYG1llyxKtNg-10" value="Reservar quarto para cliente" style="ellipse;whiteSpace=wrap;html=1;" vertex="1" parent="1">
          <mxGeometry x="563.1199999999999" y="1170" width="150" height="70" as="geometry" />
        </mxCell>
        <mxCell id="oggik_bEwYG1llyxKtNg-11" value="Cadastrar cliente" style="ellipse;whiteSpace=wrap;html=1;" vertex="1" parent="1">
          <mxGeometry x="563.12" y="620" width="150" height="55" as="geometry" />
        </mxCell>
        <mxCell id="oggik_bEwYG1llyxKtNg-12" value="Cadastrar quarto" style="ellipse;whiteSpace=wrap;html=1;" vertex="1" parent="1">
          <mxGeometry x="563.12" y="690" width="150" height="50" as="geometry" />
        </mxCell>
        <mxCell id="oggik_bEwYG1llyxKtNg-13" value="Cadastrar funcionário" style="ellipse;whiteSpace=wrap;html=1;" vertex="1" parent="1">
          <mxGeometry x="560" y="760" width="150" height="60" as="geometry" />
        </mxCell>
        <mxCell id="oggik_bEwYG1llyxKtNg-14" value="Consultar reservas" style="ellipse;whiteSpace=wrap;html=1;align=center;" vertex="1" parent="1">
          <mxGeometry x="563.12" y="920" width="150" height="50" as="geometry" />
        </mxCell>
        <mxCell id="oggik_bEwYG1llyxKtNg-15" value="Consultar clientes" style="ellipse;whiteSpace=wrap;html=1;align=center;" vertex="1" parent="1">
          <mxGeometry x="560" y="990" width="150.94" height="60" as="geometry" />
        </mxCell>
        <mxCell id="oggik_bEwYG1llyxKtNg-16" value="Consultar quartos" style="ellipse;whiteSpace=wrap;html=1;align=center;" vertex="1" parent="1">
          <mxGeometry x="552.03" y="840" width="166.88" height="60" as="geometry" />
        </mxCell>
        <mxCell id="oggik_bEwYG1llyxKtNg-17" value="Consultar funcionários" style="ellipse;whiteSpace=wrap;html=1;align=center;" vertex="1" parent="1">
          <mxGeometry x="562.18" y="1080" width="150.94" height="70" as="geometry" />
        </mxCell>
        <mxCell id="oggik_bEwYG1llyxKtNg-18" value="Cancelar reserva" style="ellipse;whiteSpace=wrap;html=1;align=center;" vertex="1" parent="1">
          <mxGeometry x="552.18" y="1260" width="160.94" height="70" as="geometry" />
        </mxCell>
        <mxCell id="oggik_bEwYG1llyxKtNg-21" value="Cliente" style="shape=umlActor;verticalLabelPosition=bottom;verticalAlign=top;html=1;" vertex="1" parent="1">
          <mxGeometry x="-140" y="870" width="30" height="60" as="geometry" />
        </mxCell>
        <mxCell id="oggik_bEwYG1llyxKtNg-26" value="&amp;nbsp;Sistema Hotel" style="html=1;whiteSpace=wrap;" vertex="1" parent="1">
          <mxGeometry x="380" y="610" width="110" height="50" as="geometry" />
        </mxCell>
        <mxCell id="oggik_bEwYG1llyxKtNg-27" value="Reservar quarto disponível" style="ellipse;whiteSpace=wrap;html=1;" vertex="1" parent="1">
          <mxGeometry x="143.76" y="800" width="166.25" height="60" as="geometry" />
        </mxCell>
        <mxCell id="oggik_bEwYG1llyxKtNg-32" value="" style="endArrow=classic;html=1;rounded=0;exitX=1;exitY=0.5;exitDx=0;exitDy=0;entryX=0;entryY=0;entryDx=0;entryDy=0;" edge="1" parent="1" source="oggik_bEwYG1llyxKtNg-3" target="oggik_bEwYG1llyxKtNg-16">
          <mxGeometry relative="1" as="geometry">
            <mxPoint x="390" y="860" as="sourcePoint" />
            <mxPoint x="490" y="860" as="targetPoint" />
          </mxGeometry>
        </mxCell>
        <mxCell id="oggik_bEwYG1llyxKtNg-33" value="Label" style="edgeLabel;resizable=0;html=1;;align=center;verticalAlign=middle;" connectable="0" vertex="1" parent="oggik_bEwYG1llyxKtNg-32">
          <mxGeometry relative="1" as="geometry" />
        </mxCell>
        <mxCell id="oggik_bEwYG1llyxKtNg-34" value="&amp;lt;&amp;lt;include&amp;gt;&amp;gt;" style="edgeLabel;html=1;align=center;verticalAlign=middle;resizable=0;points=[];" vertex="1" connectable="0" parent="oggik_bEwYG1llyxKtNg-32">
          <mxGeometry x="-0.001" y="2" relative="1" as="geometry">
            <mxPoint y="1" as="offset" />
          </mxGeometry>
        </mxCell>
        <mxCell id="oggik_bEwYG1llyxKtNg-35" value="" style="endArrow=classic;html=1;rounded=0;exitX=1;exitY=0.5;exitDx=0;exitDy=0;entryX=0;entryY=0.5;entryDx=0;entryDy=0;" edge="1" parent="1" source="oggik_bEwYG1llyxKtNg-4" target="oggik_bEwYG1llyxKtNg-10">
          <mxGeometry relative="1" as="geometry">
            <mxPoint x="390" y="960" as="sourcePoint" />
            <mxPoint x="490" y="960" as="targetPoint" />
          </mxGeometry>
        </mxCell>
        <mxCell id="oggik_bEwYG1llyxKtNg-36" value="Label" style="edgeLabel;resizable=0;html=1;;align=center;verticalAlign=middle;" connectable="0" vertex="1" parent="oggik_bEwYG1llyxKtNg-35">
          <mxGeometry relative="1" as="geometry" />
        </mxCell>
        <mxCell id="oggik_bEwYG1llyxKtNg-37" value="&amp;lt;&amp;lt;extends&amp;gt;&amp;gt;" style="edgeLabel;html=1;align=center;verticalAlign=middle;resizable=0;points=[];" vertex="1" connectable="0" parent="oggik_bEwYG1llyxKtNg-35">
          <mxGeometry x="0.0129" y="4" relative="1" as="geometry">
            <mxPoint as="offset" />
          </mxGeometry>
        </mxCell>
        <mxCell id="oggik_bEwYG1llyxKtNg-39" value="" style="endArrow=classic;html=1;rounded=0;exitX=1;exitY=0.5;exitDx=0;exitDy=0;entryX=0.029;entryY=0.324;entryDx=0;entryDy=0;entryPerimeter=0;" edge="1" parent="1" source="oggik_bEwYG1llyxKtNg-27" target="oggik_bEwYG1llyxKtNg-16">
          <mxGeometry relative="1" as="geometry">
            <mxPoint x="333" y="820" as="sourcePoint" />
            <mxPoint x="540" y="1010" as="targetPoint" />
          </mxGeometry>
        </mxCell>
        <mxCell id="oggik_bEwYG1llyxKtNg-40" value="Label" style="edgeLabel;resizable=0;html=1;;align=center;verticalAlign=middle;" connectable="0" vertex="1" parent="oggik_bEwYG1llyxKtNg-39">
          <mxGeometry relative="1" as="geometry" />
        </mxCell>
        <mxCell id="oggik_bEwYG1llyxKtNg-41" value="&amp;lt;&amp;lt;include&amp;gt;&amp;gt;" style="edgeLabel;html=1;align=center;verticalAlign=middle;resizable=0;points=[];" vertex="1" connectable="0" parent="oggik_bEwYG1llyxKtNg-39">
          <mxGeometry x="-0.001" y="2" relative="1" as="geometry">
            <mxPoint y="1" as="offset" />
          </mxGeometry>
        </mxCell>
        <mxCell id="oggik_bEwYG1llyxKtNg-43" value="" style="curved=1;endArrow=classic;html=1;rounded=0;exitX=1;exitY=0.3333333333333333;exitDx=0;exitDy=0;exitPerimeter=0;entryX=0;entryY=0.5;entryDx=0;entryDy=0;" edge="1" parent="1" source="oggik_bEwYG1llyxKtNg-21" target="oggik_bEwYG1llyxKtNg-2">
          <mxGeometry width="50" height="50" relative="1" as="geometry">
            <mxPoint x="410" y="900" as="sourcePoint" />
            <mxPoint x="460" y="850" as="targetPoint" />
            <Array as="points">
              <mxPoint x="-20" y="690" />
              <mxPoint x="20" y="640" />
            </Array>
          </mxGeometry>
        </mxCell>
        <mxCell id="oggik_bEwYG1llyxKtNg-44" value="" style="curved=1;endArrow=classic;html=1;rounded=0;exitX=1;exitY=0.3333333333333333;exitDx=0;exitDy=0;exitPerimeter=0;entryX=0;entryY=0.5;entryDx=0;entryDy=0;" edge="1" parent="1" source="oggik_bEwYG1llyxKtNg-21" target="oggik_bEwYG1llyxKtNg-3">
          <mxGeometry width="50" height="50" relative="1" as="geometry">
            <mxPoint x="-58.230000000000004" y="1030" as="sourcePoint" />
            <mxPoint x="153.77" y="790" as="targetPoint" />
            <Array as="points">
              <mxPoint x="-20" y="820" />
              <mxPoint x="1.7699999999999996" y="780" />
              <mxPoint x="20" y="650" />
            </Array>
          </mxGeometry>
        </mxCell>
        <mxCell id="oggik_bEwYG1llyxKtNg-46" value="" style="curved=1;endArrow=classic;html=1;rounded=0;exitX=1;exitY=0.3333333333333333;exitDx=0;exitDy=0;exitPerimeter=0;entryX=0;entryY=0.5;entryDx=0;entryDy=0;" edge="1" parent="1" source="oggik_bEwYG1llyxKtNg-21" target="oggik_bEwYG1llyxKtNg-27">
          <mxGeometry width="50" height="50" relative="1" as="geometry">
            <mxPoint y="880" as="sourcePoint" />
            <mxPoint x="50" y="830" as="targetPoint" />
            <Array as="points">
              <mxPoint y="840" />
              <mxPoint y="830" />
              <mxPoint x="80" y="750" />
            </Array>
          </mxGeometry>
        </mxCell>
        <mxCell id="oggik_bEwYG1llyxKtNg-47" value="" style="curved=1;endArrow=classic;html=1;rounded=0;exitX=1;exitY=0.3333333333333333;exitDx=0;exitDy=0;exitPerimeter=0;entryX=0;entryY=0.5;entryDx=0;entryDy=0;" edge="1" parent="1" source="oggik_bEwYG1llyxKtNg-21" target="oggik_bEwYG1llyxKtNg-4">
          <mxGeometry width="50" height="50" relative="1" as="geometry">
            <mxPoint x="25" y="900" as="sourcePoint" />
            <mxPoint x="75" y="850" as="targetPoint" />
            <Array as="points">
              <mxPoint y="890" />
              <mxPoint x="20" y="870" />
              <mxPoint x="25" y="850" />
            </Array>
          </mxGeometry>
        </mxCell>
        <mxCell id="oggik_bEwYG1llyxKtNg-48" value="" style="curved=1;endArrow=classic;html=1;rounded=0;exitX=1;exitY=0.3333333333333333;exitDx=0;exitDy=0;exitPerimeter=0;entryX=0;entryY=0.5;entryDx=0;entryDy=0;" edge="1" parent="1" source="oggik_bEwYG1llyxKtNg-21" target="oggik_bEwYG1llyxKtNg-5">
          <mxGeometry width="50" height="50" relative="1" as="geometry">
            <mxPoint x="10" y="990" as="sourcePoint" />
            <mxPoint x="60" y="940" as="targetPoint" />
            <Array as="points">
              <mxPoint x="50" y="900" />
              <mxPoint x="10" y="940" />
            </Array>
          </mxGeometry>
        </mxCell>
        <mxCell id="oggik_bEwYG1llyxKtNg-49" value="" style="curved=1;endArrow=classic;html=1;rounded=0;exitX=1;exitY=0.3333333333333333;exitDx=0;exitDy=0;exitPerimeter=0;entryX=0;entryY=0.5;entryDx=0;entryDy=0;" edge="1" parent="1" source="oggik_bEwYG1llyxKtNg-21" target="oggik_bEwYG1llyxKtNg-6">
          <mxGeometry width="50" height="50" relative="1" as="geometry">
            <mxPoint x="-40" y="900" as="sourcePoint" />
            <mxPoint x="30" y="980" as="targetPoint" />
            <Array as="points">
              <mxPoint x="70" y="970" />
              <mxPoint x="-20" y="980" />
            </Array>
          </mxGeometry>
        </mxCell>
        <mxCell id="oggik_bEwYG1llyxKtNg-50" value="" style="curved=1;endArrow=classic;html=1;rounded=0;exitX=1;exitY=0.3333333333333333;exitDx=0;exitDy=0;exitPerimeter=0;entryX=0;entryY=0.5;entryDx=0;entryDy=0;" edge="1" parent="1" source="oggik_bEwYG1llyxKtNg-21" target="oggik_bEwYG1llyxKtNg-9">
          <mxGeometry width="50" height="50" relative="1" as="geometry">
            <mxPoint x="-20" y="1120" as="sourcePoint" />
            <mxPoint x="30" y="1070" as="targetPoint" />
            <Array as="points">
              <mxPoint x="10" y="1080" />
              <mxPoint x="70" y="1040" />
              <mxPoint x="110" y="1090" />
            </Array>
          </mxGeometry>
        </mxCell>
        <mxCell id="oggik_bEwYG1llyxKtNg-51" value="" style="curved=1;endArrow=classic;html=1;rounded=0;exitX=1;exitY=0.3333333333333333;exitDx=0;exitDy=0;exitPerimeter=0;entryX=0;entryY=0.5;entryDx=0;entryDy=0;" edge="1" parent="1" source="oggik_bEwYG1llyxKtNg-21" target="oggik_bEwYG1llyxKtNg-7">
          <mxGeometry width="50" height="50" relative="1" as="geometry">
            <mxPoint x="-30" y="1150" as="sourcePoint" />
            <mxPoint x="20" y="1100" as="targetPoint" />
            <Array as="points">
              <mxPoint x="20" y="1140" />
              <mxPoint x="60" y="1100" />
            </Array>
          </mxGeometry>
        </mxCell>
        <mxCell id="oggik_bEwYG1llyxKtNg-52" value="" style="curved=1;endArrow=classic;html=1;rounded=0;exitX=1;exitY=0.3333333333333333;exitDx=0;exitDy=0;exitPerimeter=0;entryX=0;entryY=0.5;entryDx=0;entryDy=0;" edge="1" parent="1" source="oggik_bEwYG1llyxKtNg-21" target="oggik_bEwYG1llyxKtNg-8">
          <mxGeometry width="50" height="50" relative="1" as="geometry">
            <mxPoint x="410" y="1110" as="sourcePoint" />
            <mxPoint x="460" y="1060" as="targetPoint" />
            <Array as="points">
              <mxPoint x="-80" y="1300" />
              <mxPoint x="80" y="1240" />
            </Array>
          </mxGeometry>
        </mxCell>
        <mxCell id="oggik_bEwYG1llyxKtNg-54" value="" style="curved=1;endArrow=classic;html=1;rounded=0;entryX=1;entryY=0.5;entryDx=0;entryDy=0;exitX=0;exitY=0.3333333333333333;exitDx=0;exitDy=0;exitPerimeter=0;" edge="1" parent="1" source="rv91aPTuUE2_OIJIuhbl-3" target="oggik_bEwYG1llyxKtNg-11">
          <mxGeometry width="50" height="50" relative="1" as="geometry">
            <mxPoint x="880" y="750" as="sourcePoint" />
            <mxPoint x="930" y="700" as="targetPoint" />
            <Array as="points">
              <mxPoint x="930" y="750" />
              <mxPoint x="880" y="700" />
            </Array>
          </mxGeometry>
        </mxCell>
        <mxCell id="oggik_bEwYG1llyxKtNg-55" value="" style="curved=1;endArrow=classic;html=1;rounded=0;entryX=1;entryY=0.5;entryDx=0;entryDy=0;exitX=0;exitY=0.3333333333333333;exitDx=0;exitDy=0;exitPerimeter=0;" edge="1" parent="1" source="rv91aPTuUE2_OIJIuhbl-3" target="oggik_bEwYG1llyxKtNg-12">
          <mxGeometry width="50" height="50" relative="1" as="geometry">
            <mxPoint x="860" y="820" as="sourcePoint" />
            <mxPoint x="910" y="770" as="targetPoint" />
            <Array as="points">
              <mxPoint x="910" y="820" />
              <mxPoint x="860" y="770" />
            </Array>
          </mxGeometry>
        </mxCell>
        <mxCell id="oggik_bEwYG1llyxKtNg-56" value="" style="curved=1;endArrow=classic;html=1;rounded=0;entryX=1;entryY=0.5;entryDx=0;entryDy=0;exitX=0;exitY=0.3333333333333333;exitDx=0;exitDy=0;exitPerimeter=0;" edge="1" parent="1" source="rv91aPTuUE2_OIJIuhbl-3" target="oggik_bEwYG1llyxKtNg-13">
          <mxGeometry width="50" height="50" relative="1" as="geometry">
            <mxPoint x="820" y="870" as="sourcePoint" />
            <mxPoint x="870" y="820" as="targetPoint" />
            <Array as="points">
              <mxPoint x="870" y="870" />
              <mxPoint x="820" y="820" />
            </Array>
          </mxGeometry>
        </mxCell>
        <mxCell id="oggik_bEwYG1llyxKtNg-57" value="" style="curved=1;endArrow=classic;html=1;rounded=0;entryX=1;entryY=0.5;entryDx=0;entryDy=0;exitX=0;exitY=0.3333333333333333;exitDx=0;exitDy=0;exitPerimeter=0;" edge="1" parent="1" source="rv91aPTuUE2_OIJIuhbl-3" target="oggik_bEwYG1llyxKtNg-16">
          <mxGeometry width="50" height="50" relative="1" as="geometry">
            <mxPoint x="835" y="940" as="sourcePoint" />
            <mxPoint x="885" y="890" as="targetPoint" />
            <Array as="points">
              <mxPoint x="870" y="910" />
              <mxPoint x="835" y="890" />
            </Array>
          </mxGeometry>
        </mxCell>
        <mxCell id="oggik_bEwYG1llyxKtNg-58" value="" style="curved=1;endArrow=classic;html=1;rounded=0;exitX=0;exitY=0.3333333333333333;exitDx=0;exitDy=0;exitPerimeter=0;entryX=1;entryY=0.5;entryDx=0;entryDy=0;" edge="1" parent="1" source="rv91aPTuUE2_OIJIuhbl-3" target="oggik_bEwYG1llyxKtNg-14">
          <mxGeometry width="50" height="50" relative="1" as="geometry">
            <mxPoint x="870" y="1020" as="sourcePoint" />
            <mxPoint x="920" y="970" as="targetPoint" />
            <Array as="points">
              <mxPoint x="860" y="940" />
              <mxPoint x="870" y="970" />
            </Array>
          </mxGeometry>
        </mxCell>
        <mxCell id="oggik_bEwYG1llyxKtNg-59" value="" style="curved=1;endArrow=classic;html=1;rounded=0;entryX=1;entryY=0.5;entryDx=0;entryDy=0;exitX=0;exitY=0.3333333333333333;exitDx=0;exitDy=0;exitPerimeter=0;" edge="1" parent="1" source="rv91aPTuUE2_OIJIuhbl-3" target="oggik_bEwYG1llyxKtNg-15">
          <mxGeometry width="50" height="50" relative="1" as="geometry">
            <mxPoint x="920" y="1015" as="sourcePoint" />
            <mxPoint x="970" y="965" as="targetPoint" />
            <Array as="points">
              <mxPoint x="870" y="1020" />
              <mxPoint x="860" y="1000" />
              <mxPoint x="870" y="1030" />
              <mxPoint x="800" y="1010" />
              <mxPoint x="810" y="1030" />
              <mxPoint x="790" y="1040" />
            </Array>
          </mxGeometry>
        </mxCell>
        <mxCell id="oggik_bEwYG1llyxKtNg-60" value="" style="curved=1;endArrow=classic;html=1;rounded=0;entryX=1;entryY=0.5;entryDx=0;entryDy=0;exitX=0;exitY=0.3333333333333333;exitDx=0;exitDy=0;exitPerimeter=0;" edge="1" parent="1" source="rv91aPTuUE2_OIJIuhbl-3" target="oggik_bEwYG1llyxKtNg-17">
          <mxGeometry width="50" height="50" relative="1" as="geometry">
            <mxPoint x="980" y="1110" as="sourcePoint" />
            <mxPoint x="1030" y="1060" as="targetPoint" />
            <Array as="points">
              <mxPoint x="900" y="1030" />
              <mxPoint x="910" y="1080" />
            </Array>
          </mxGeometry>
        </mxCell>
        <mxCell id="oggik_bEwYG1llyxKtNg-61" value="" style="curved=1;endArrow=classic;html=1;rounded=0;entryX=1;entryY=0.5;entryDx=0;entryDy=0;exitX=0;exitY=0.3333333333333333;exitDx=0;exitDy=0;exitPerimeter=0;" edge="1" parent="1" source="rv91aPTuUE2_OIJIuhbl-3" target="oggik_bEwYG1llyxKtNg-10">
          <mxGeometry width="50" height="50" relative="1" as="geometry">
            <mxPoint x="940" y="1120" as="sourcePoint" />
            <mxPoint x="990" y="1070" as="targetPoint" />
            <Array as="points">
              <mxPoint x="920" y="1050" />
              <mxPoint x="940" y="1070" />
            </Array>
          </mxGeometry>
        </mxCell>
        <mxCell id="oggik_bEwYG1llyxKtNg-62" value="" style="curved=1;endArrow=classic;html=1;rounded=0;entryX=1;entryY=0.5;entryDx=0;entryDy=0;exitX=0;exitY=0.3333333333333333;exitDx=0;exitDy=0;exitPerimeter=0;" edge="1" parent="1" source="rv91aPTuUE2_OIJIuhbl-3" target="oggik_bEwYG1llyxKtNg-18">
          <mxGeometry width="50" height="50" relative="1" as="geometry">
            <mxPoint x="980" y="1140" as="sourcePoint" />
            <mxPoint x="1030" y="1090" as="targetPoint" />
            <Array as="points">
              <mxPoint x="960" y="1050" />
              <mxPoint x="980" y="1090" />
            </Array>
          </mxGeometry>
        </mxCell>
      </root>
    </mxGraphModel>
  </diagram>
  <diagram id="BWvJVc9jrcyw1vCbbqSU" name="Processos">
    <mxGraphModel dx="1036" dy="609" grid="1" gridSize="10" guides="1" tooltips="1" connect="1" arrows="1" fold="1" page="1" pageScale="1" pageWidth="850" pageHeight="1100" math="0" shadow="0">
      <root>
        <mxCell id="0" />
        <mxCell id="1" parent="0" />
        <mxCell id="hWg6MefeGxwba39OKVSd-31" value="" style="group" vertex="1" connectable="0" parent="1">
          <mxGeometry x="20" y="20" width="610" height="440" as="geometry" />
        </mxCell>
        <mxCell id="hWg6MefeGxwba39OKVSd-29" value="" style="rounded=1;whiteSpace=wrap;html=1;absoluteArcSize=1;arcSize=14;strokeWidth=2;" vertex="1" parent="hWg6MefeGxwba39OKVSd-31">
          <mxGeometry width="610" height="440" as="geometry" />
        </mxCell>
        <mxCell id="hWg6MefeGxwba39OKVSd-13" style="edgeStyle=orthogonalEdgeStyle;rounded=0;orthogonalLoop=1;jettySize=auto;html=1;" edge="1" parent="hWg6MefeGxwba39OKVSd-31" source="hWg6MefeGxwba39OKVSd-9" target="hWg6MefeGxwba39OKVSd-12">
          <mxGeometry relative="1" as="geometry" />
        </mxCell>
        <mxCell id="hWg6MefeGxwba39OKVSd-9" value="Cliente acessa sistema" style="rounded=1;whiteSpace=wrap;html=1;" vertex="1" parent="hWg6MefeGxwba39OKVSd-31">
          <mxGeometry x="90" y="55" width="120" height="60" as="geometry" />
        </mxCell>
        <mxCell id="hWg6MefeGxwba39OKVSd-10" value="" style="ellipse;html=1;shape=startState;fillColor=#000000;strokeColor=#ff0000;" vertex="1" parent="hWg6MefeGxwba39OKVSd-31">
          <mxGeometry x="10" y="70" width="30" height="30" as="geometry" />
        </mxCell>
        <mxCell id="hWg6MefeGxwba39OKVSd-11" value="" style="edgeStyle=orthogonalEdgeStyle;html=1;verticalAlign=bottom;endArrow=open;endSize=8;strokeColor=#ff0000;rounded=0;entryX=0;entryY=0.5;entryDx=0;entryDy=0;" edge="1" source="hWg6MefeGxwba39OKVSd-10" parent="hWg6MefeGxwba39OKVSd-31" target="hWg6MefeGxwba39OKVSd-9">
          <mxGeometry relative="1" as="geometry">
            <mxPoint x="25" y="160" as="targetPoint" />
          </mxGeometry>
        </mxCell>
        <mxCell id="hWg6MefeGxwba39OKVSd-15" style="edgeStyle=orthogonalEdgeStyle;rounded=0;orthogonalLoop=1;jettySize=auto;html=1;entryX=0.5;entryY=0;entryDx=0;entryDy=0;" edge="1" parent="hWg6MefeGxwba39OKVSd-31" source="hWg6MefeGxwba39OKVSd-12" target="hWg6MefeGxwba39OKVSd-14">
          <mxGeometry relative="1" as="geometry" />
        </mxCell>
        <mxCell id="hWg6MefeGxwba39OKVSd-12" value="Consulta quartos disponíveis por data" style="rounded=1;whiteSpace=wrap;html=1;" vertex="1" parent="hWg6MefeGxwba39OKVSd-31">
          <mxGeometry x="260" y="55" width="120" height="60" as="geometry" />
        </mxCell>
        <mxCell id="hWg6MefeGxwba39OKVSd-17" style="edgeStyle=orthogonalEdgeStyle;rounded=0;orthogonalLoop=1;jettySize=auto;html=1;" edge="1" parent="hWg6MefeGxwba39OKVSd-31" source="hWg6MefeGxwba39OKVSd-14" target="hWg6MefeGxwba39OKVSd-16">
          <mxGeometry relative="1" as="geometry" />
        </mxCell>
        <mxCell id="hWg6MefeGxwba39OKVSd-14" value="Escolhe quarto" style="rounded=1;whiteSpace=wrap;html=1;" vertex="1" parent="hWg6MefeGxwba39OKVSd-31">
          <mxGeometry x="260" y="150" width="120" height="60" as="geometry" />
        </mxCell>
        <mxCell id="hWg6MefeGxwba39OKVSd-19" style="edgeStyle=orthogonalEdgeStyle;rounded=0;orthogonalLoop=1;jettySize=auto;html=1;" edge="1" parent="hWg6MefeGxwba39OKVSd-31" source="hWg6MefeGxwba39OKVSd-16" target="hWg6MefeGxwba39OKVSd-18">
          <mxGeometry relative="1" as="geometry" />
        </mxCell>
        <mxCell id="hWg6MefeGxwba39OKVSd-16" value="Confirma reserva" style="rounded=1;whiteSpace=wrap;html=1;" vertex="1" parent="hWg6MefeGxwba39OKVSd-31">
          <mxGeometry x="260" y="250" width="120" height="60" as="geometry" />
        </mxCell>
        <mxCell id="hWg6MefeGxwba39OKVSd-18" value="Recebe confirmação" style="rounded=1;whiteSpace=wrap;html=1;" vertex="1" parent="hWg6MefeGxwba39OKVSd-31">
          <mxGeometry x="260" y="350" width="120" height="60" as="geometry" />
        </mxCell>
        <mxCell id="hWg6MefeGxwba39OKVSd-20" value="" style="verticalLabelPosition=bottom;verticalAlign=top;html=1;shape=mxgraph.flowchart.on-page_reference;container=0;" vertex="1" parent="hWg6MefeGxwba39OKVSd-31">
          <mxGeometry x="460" y="365" width="30" height="30" as="geometry" />
        </mxCell>
        <mxCell id="hWg6MefeGxwba39OKVSd-21" value="" style="verticalLabelPosition=bottom;verticalAlign=top;html=1;shape=mxgraph.flowchart.on-page_reference;fillColor=#000000;container=0;" vertex="1" parent="hWg6MefeGxwba39OKVSd-31">
          <mxGeometry x="470" y="365" width="10" height="30" as="geometry" />
        </mxCell>
        <mxCell id="hWg6MefeGxwba39OKVSd-24" style="edgeStyle=orthogonalEdgeStyle;rounded=0;orthogonalLoop=1;jettySize=auto;html=1;entryX=0;entryY=0.5;entryDx=0;entryDy=0;entryPerimeter=0;" edge="1" parent="hWg6MefeGxwba39OKVSd-31" source="hWg6MefeGxwba39OKVSd-18" target="hWg6MefeGxwba39OKVSd-20">
          <mxGeometry relative="1" as="geometry" />
        </mxCell>
        <mxCell id="hWg6MefeGxwba39OKVSd-25" style="edgeStyle=orthogonalEdgeStyle;rounded=0;orthogonalLoop=1;jettySize=auto;html=1;entryX=0.5;entryY=0;entryDx=0;entryDy=0;entryPerimeter=0;" edge="1" parent="hWg6MefeGxwba39OKVSd-31" source="hWg6MefeGxwba39OKVSd-12" target="hWg6MefeGxwba39OKVSd-21">
          <mxGeometry relative="1" as="geometry" />
        </mxCell>
        <mxCell id="hWg6MefeGxwba39OKVSd-30" value="Reserva de Quarto (Cliente)" style="text;html=1;align=center;verticalAlign=middle;resizable=0;points=[];autosize=1;strokeColor=none;fillColor=none;" vertex="1" parent="hWg6MefeGxwba39OKVSd-31">
          <mxGeometry width="170" height="30" as="geometry" />
        </mxCell>
        <mxCell id="CLAMz1ynW3SBTakcCYcM-41" value="" style="group" vertex="1" connectable="0" parent="1">
          <mxGeometry x="20" y="490" width="610" height="440" as="geometry" />
        </mxCell>
        <mxCell id="CLAMz1ynW3SBTakcCYcM-2" value="" style="rounded=1;whiteSpace=wrap;html=1;absoluteArcSize=1;arcSize=14;strokeWidth=2;" vertex="1" parent="CLAMz1ynW3SBTakcCYcM-41">
          <mxGeometry width="610" height="440" as="geometry" />
        </mxCell>
        <mxCell id="CLAMz1ynW3SBTakcCYcM-3" style="edgeStyle=orthogonalEdgeStyle;rounded=0;orthogonalLoop=1;jettySize=auto;html=1;" edge="1" parent="CLAMz1ynW3SBTakcCYcM-41" source="CLAMz1ynW3SBTakcCYcM-4" target="CLAMz1ynW3SBTakcCYcM-8">
          <mxGeometry relative="1" as="geometry" />
        </mxCell>
        <mxCell id="CLAMz1ynW3SBTakcCYcM-4" value="Cliente acessa sua reserva pendente" style="rounded=1;whiteSpace=wrap;html=1;" vertex="1" parent="CLAMz1ynW3SBTakcCYcM-41">
          <mxGeometry x="90" y="55" width="120" height="60" as="geometry" />
        </mxCell>
        <mxCell id="CLAMz1ynW3SBTakcCYcM-5" value="" style="ellipse;html=1;shape=startState;fillColor=#000000;strokeColor=#ff0000;" vertex="1" parent="CLAMz1ynW3SBTakcCYcM-41">
          <mxGeometry x="10" y="70" width="30" height="30" as="geometry" />
        </mxCell>
        <mxCell id="CLAMz1ynW3SBTakcCYcM-6" value="" style="edgeStyle=orthogonalEdgeStyle;html=1;verticalAlign=bottom;endArrow=open;endSize=8;strokeColor=#ff0000;rounded=0;entryX=0;entryY=0.5;entryDx=0;entryDy=0;" edge="1" parent="CLAMz1ynW3SBTakcCYcM-41" source="CLAMz1ynW3SBTakcCYcM-5" target="CLAMz1ynW3SBTakcCYcM-4">
          <mxGeometry relative="1" as="geometry">
            <mxPoint x="25" y="160" as="targetPoint" />
          </mxGeometry>
        </mxCell>
        <mxCell id="CLAMz1ynW3SBTakcCYcM-25" style="edgeStyle=orthogonalEdgeStyle;rounded=0;orthogonalLoop=1;jettySize=auto;html=1;entryX=0;entryY=0.5;entryDx=0;entryDy=0;" edge="1" parent="CLAMz1ynW3SBTakcCYcM-41" source="CLAMz1ynW3SBTakcCYcM-8" target="CLAMz1ynW3SBTakcCYcM-10">
          <mxGeometry relative="1" as="geometry" />
        </mxCell>
        <mxCell id="CLAMz1ynW3SBTakcCYcM-8" value="Escolhe forma de pagamento" style="rounded=1;whiteSpace=wrap;html=1;" vertex="1" parent="CLAMz1ynW3SBTakcCYcM-41">
          <mxGeometry x="260" y="55" width="120" height="60" as="geometry" />
        </mxCell>
        <mxCell id="CLAMz1ynW3SBTakcCYcM-10" value="Informa dados de pagamento" style="rounded=1;whiteSpace=wrap;html=1;" vertex="1" parent="CLAMz1ynW3SBTakcCYcM-41">
          <mxGeometry x="430" y="55" width="120" height="60" as="geometry" />
        </mxCell>
        <mxCell id="CLAMz1ynW3SBTakcCYcM-14" value="" style="verticalLabelPosition=bottom;verticalAlign=top;html=1;shape=mxgraph.flowchart.on-page_reference;container=0;" vertex="1" parent="CLAMz1ynW3SBTakcCYcM-41">
          <mxGeometry x="305" y="380" width="30" height="30" as="geometry" />
        </mxCell>
        <mxCell id="CLAMz1ynW3SBTakcCYcM-15" value="" style="verticalLabelPosition=bottom;verticalAlign=top;html=1;shape=mxgraph.flowchart.on-page_reference;fillColor=#000000;container=0;" vertex="1" parent="CLAMz1ynW3SBTakcCYcM-41">
          <mxGeometry x="315" y="380" width="10" height="30" as="geometry" />
        </mxCell>
        <mxCell id="CLAMz1ynW3SBTakcCYcM-18" value="Pagamento da Reserva" style="text;html=1;align=center;verticalAlign=middle;resizable=0;points=[];autosize=1;strokeColor=none;fillColor=none;" vertex="1" parent="CLAMz1ynW3SBTakcCYcM-41">
          <mxGeometry x="10" width="150" height="30" as="geometry" />
        </mxCell>
        <mxCell id="CLAMz1ynW3SBTakcCYcM-29" value="" style="edgeStyle=segmentEdgeStyle;endArrow=classic;html=1;curved=0;rounded=0;endSize=8;startSize=8;entryX=0.5;entryY=0;entryDx=0;entryDy=0;exitX=0.5;exitY=1;exitDx=0;exitDy=0;entryPerimeter=0;" edge="1" parent="CLAMz1ynW3SBTakcCYcM-41" source="CLAMz1ynW3SBTakcCYcM-10" target="CLAMz1ynW3SBTakcCYcM-31">
          <mxGeometry width="50" height="50" relative="1" as="geometry">
            <mxPoint x="510" y="145" as="sourcePoint" />
            <mxPoint x="380" y="190" as="targetPoint" />
            <Array as="points">
              <mxPoint x="490" y="140" />
              <mxPoint x="320" y="140" />
            </Array>
          </mxGeometry>
        </mxCell>
        <mxCell id="CLAMz1ynW3SBTakcCYcM-34" style="edgeStyle=orthogonalEdgeStyle;rounded=0;orthogonalLoop=1;jettySize=auto;html=1;" edge="1" parent="CLAMz1ynW3SBTakcCYcM-41" source="CLAMz1ynW3SBTakcCYcM-31" target="CLAMz1ynW3SBTakcCYcM-32">
          <mxGeometry relative="1" as="geometry" />
        </mxCell>
        <mxCell id="CLAMz1ynW3SBTakcCYcM-35" style="edgeStyle=orthogonalEdgeStyle;rounded=0;orthogonalLoop=1;jettySize=auto;html=1;entryX=0;entryY=0.5;entryDx=0;entryDy=0;" edge="1" parent="CLAMz1ynW3SBTakcCYcM-41" source="CLAMz1ynW3SBTakcCYcM-31" target="CLAMz1ynW3SBTakcCYcM-33">
          <mxGeometry relative="1" as="geometry" />
        </mxCell>
        <mxCell id="CLAMz1ynW3SBTakcCYcM-31" value="Sistema processa pagamento" style="strokeWidth=2;html=1;shape=mxgraph.flowchart.decision;whiteSpace=wrap;" vertex="1" parent="CLAMz1ynW3SBTakcCYcM-41">
          <mxGeometry x="245" y="160" width="150" height="140" as="geometry" />
        </mxCell>
        <mxCell id="CLAMz1ynW3SBTakcCYcM-40" style="edgeStyle=orthogonalEdgeStyle;rounded=0;orthogonalLoop=1;jettySize=auto;html=1;entryX=0.5;entryY=1;entryDx=0;entryDy=0;" edge="1" parent="CLAMz1ynW3SBTakcCYcM-41" source="CLAMz1ynW3SBTakcCYcM-32" target="CLAMz1ynW3SBTakcCYcM-5">
          <mxGeometry relative="1" as="geometry" />
        </mxCell>
        <mxCell id="CLAMz1ynW3SBTakcCYcM-32" value="Mostra erro e solicita nova tentativa" style="rounded=1;whiteSpace=wrap;html=1;" vertex="1" parent="CLAMz1ynW3SBTakcCYcM-41">
          <mxGeometry x="90" y="200" width="120" height="60" as="geometry" />
        </mxCell>
        <mxCell id="CLAMz1ynW3SBTakcCYcM-33" value="Confirma pagamento e atualiza reserva" style="rounded=1;whiteSpace=wrap;html=1;" vertex="1" parent="CLAMz1ynW3SBTakcCYcM-41">
          <mxGeometry x="430" y="200" width="120" height="60" as="geometry" />
        </mxCell>
        <mxCell id="CLAMz1ynW3SBTakcCYcM-36" style="edgeStyle=orthogonalEdgeStyle;rounded=0;orthogonalLoop=1;jettySize=auto;html=1;entryX=1;entryY=0.5;entryDx=0;entryDy=0;entryPerimeter=0;" edge="1" parent="CLAMz1ynW3SBTakcCYcM-41" source="CLAMz1ynW3SBTakcCYcM-33" target="CLAMz1ynW3SBTakcCYcM-14">
          <mxGeometry relative="1" as="geometry">
            <Array as="points">
              <mxPoint x="490" y="395" />
            </Array>
          </mxGeometry>
        </mxCell>
        <mxCell id="CLAMz1ynW3SBTakcCYcM-38" style="edgeStyle=orthogonalEdgeStyle;rounded=0;orthogonalLoop=1;jettySize=auto;html=1;entryX=0;entryY=0.5;entryDx=0;entryDy=0;entryPerimeter=0;" edge="1" parent="CLAMz1ynW3SBTakcCYcM-41" source="CLAMz1ynW3SBTakcCYcM-32" target="CLAMz1ynW3SBTakcCYcM-14">
          <mxGeometry relative="1" as="geometry">
            <Array as="points">
              <mxPoint x="150" y="395" />
            </Array>
          </mxGeometry>
        </mxCell>
        <mxCell id="CLAMz1ynW3SBTakcCYcM-42" value="" style="group" vertex="1" connectable="0" parent="1">
          <mxGeometry x="650" y="20" width="610" height="440" as="geometry" />
        </mxCell>
        <mxCell id="CLAMz1ynW3SBTakcCYcM-43" value="" style="rounded=1;whiteSpace=wrap;html=1;absoluteArcSize=1;arcSize=14;strokeWidth=2;movable=1;resizable=1;rotatable=1;deletable=1;editable=1;locked=0;connectable=1;" vertex="1" parent="CLAMz1ynW3SBTakcCYcM-42">
          <mxGeometry width="610" height="440" as="geometry" />
        </mxCell>
        <mxCell id="CLAMz1ynW3SBTakcCYcM-44" style="edgeStyle=orthogonalEdgeStyle;rounded=0;orthogonalLoop=1;jettySize=auto;html=1;" edge="1" parent="CLAMz1ynW3SBTakcCYcM-42" source="CLAMz1ynW3SBTakcCYcM-45" target="CLAMz1ynW3SBTakcCYcM-49">
          <mxGeometry relative="1" as="geometry" />
        </mxCell>
        <mxCell id="CLAMz1ynW3SBTakcCYcM-45" value="Cliente acessa sistema" style="rounded=1;whiteSpace=wrap;html=1;" vertex="1" parent="CLAMz1ynW3SBTakcCYcM-42">
          <mxGeometry x="90" y="55" width="120" height="60" as="geometry" />
        </mxCell>
        <mxCell id="CLAMz1ynW3SBTakcCYcM-46" value="" style="ellipse;html=1;shape=startState;fillColor=#000000;strokeColor=#ff0000;" vertex="1" parent="CLAMz1ynW3SBTakcCYcM-42">
          <mxGeometry x="10" y="70" width="30" height="30" as="geometry" />
        </mxCell>
        <mxCell id="CLAMz1ynW3SBTakcCYcM-47" value="" style="edgeStyle=orthogonalEdgeStyle;html=1;verticalAlign=bottom;endArrow=open;endSize=8;strokeColor=#ff0000;rounded=0;entryX=0;entryY=0.5;entryDx=0;entryDy=0;" edge="1" parent="CLAMz1ynW3SBTakcCYcM-42" source="CLAMz1ynW3SBTakcCYcM-46" target="CLAMz1ynW3SBTakcCYcM-45">
          <mxGeometry relative="1" as="geometry">
            <mxPoint x="25" y="160" as="targetPoint" />
          </mxGeometry>
        </mxCell>
        <mxCell id="Xsv6D0fHZQTa1M_jnzUs-1" style="edgeStyle=orthogonalEdgeStyle;rounded=0;orthogonalLoop=1;jettySize=auto;html=1;entryX=0;entryY=0.5;entryDx=0;entryDy=0;" edge="1" parent="CLAMz1ynW3SBTakcCYcM-42" source="CLAMz1ynW3SBTakcCYcM-49" target="CLAMz1ynW3SBTakcCYcM-51">
          <mxGeometry relative="1" as="geometry" />
        </mxCell>
        <mxCell id="CLAMz1ynW3SBTakcCYcM-49" value="Consulta reserva atual" style="rounded=1;whiteSpace=wrap;html=1;" vertex="1" parent="CLAMz1ynW3SBTakcCYcM-42">
          <mxGeometry x="260" y="55" width="120" height="60" as="geometry" />
        </mxCell>
        <mxCell id="Xsv6D0fHZQTa1M_jnzUs-2" style="edgeStyle=orthogonalEdgeStyle;rounded=0;orthogonalLoop=1;jettySize=auto;html=1;entryX=0.5;entryY=0;entryDx=0;entryDy=0;" edge="1" parent="CLAMz1ynW3SBTakcCYcM-42" source="CLAMz1ynW3SBTakcCYcM-51" target="CLAMz1ynW3SBTakcCYcM-53">
          <mxGeometry relative="1" as="geometry" />
        </mxCell>
        <mxCell id="CLAMz1ynW3SBTakcCYcM-51" value="Clica em &quot;Check-in&quot;" style="rounded=1;whiteSpace=wrap;html=1;" vertex="1" parent="CLAMz1ynW3SBTakcCYcM-42">
          <mxGeometry x="430" y="55" width="120" height="60" as="geometry" />
        </mxCell>
        <mxCell id="Xsv6D0fHZQTa1M_jnzUs-3" style="edgeStyle=orthogonalEdgeStyle;rounded=0;orthogonalLoop=1;jettySize=auto;html=1;entryX=1;entryY=0.5;entryDx=0;entryDy=0;" edge="1" parent="CLAMz1ynW3SBTakcCYcM-42" source="CLAMz1ynW3SBTakcCYcM-53" target="CLAMz1ynW3SBTakcCYcM-54">
          <mxGeometry relative="1" as="geometry" />
        </mxCell>
        <mxCell id="CLAMz1ynW3SBTakcCYcM-53" value="Sistema valida reserva e libera chave digital ou código" style="rounded=1;whiteSpace=wrap;html=1;" vertex="1" parent="CLAMz1ynW3SBTakcCYcM-42">
          <mxGeometry x="430" y="150" width="120" height="60" as="geometry" />
        </mxCell>
        <mxCell id="CLAMz1ynW3SBTakcCYcM-54" value="Confirma check-in efetuado" style="rounded=1;whiteSpace=wrap;html=1;" vertex="1" parent="CLAMz1ynW3SBTakcCYcM-42">
          <mxGeometry x="260" y="150" width="120" height="60" as="geometry" />
        </mxCell>
        <mxCell id="CLAMz1ynW3SBTakcCYcM-55" value="" style="verticalLabelPosition=bottom;verticalAlign=top;html=1;shape=mxgraph.flowchart.on-page_reference;container=0;" vertex="1" parent="CLAMz1ynW3SBTakcCYcM-42">
          <mxGeometry x="305" y="290" width="30" height="30" as="geometry" />
        </mxCell>
        <mxCell id="CLAMz1ynW3SBTakcCYcM-56" value="" style="verticalLabelPosition=bottom;verticalAlign=top;html=1;shape=mxgraph.flowchart.on-page_reference;fillColor=#000000;container=0;" vertex="1" parent="CLAMz1ynW3SBTakcCYcM-42">
          <mxGeometry x="315" y="290" width="10" height="30" as="geometry" />
        </mxCell>
        <mxCell id="CLAMz1ynW3SBTakcCYcM-59" value="Check-in Online" style="text;html=1;align=center;verticalAlign=middle;resizable=0;points=[];autosize=1;strokeColor=none;fillColor=none;" vertex="1" parent="CLAMz1ynW3SBTakcCYcM-42">
          <mxGeometry x="30" width="110" height="30" as="geometry" />
        </mxCell>
        <mxCell id="Xsv6D0fHZQTa1M_jnzUs-4" style="edgeStyle=orthogonalEdgeStyle;rounded=0;orthogonalLoop=1;jettySize=auto;html=1;entryX=0.5;entryY=0;entryDx=0;entryDy=0;entryPerimeter=0;" edge="1" parent="CLAMz1ynW3SBTakcCYcM-42" source="CLAMz1ynW3SBTakcCYcM-54" target="CLAMz1ynW3SBTakcCYcM-55">
          <mxGeometry relative="1" as="geometry" />
        </mxCell>
        <mxCell id="Xsv6D0fHZQTa1M_jnzUs-23" style="edgeStyle=orthogonalEdgeStyle;rounded=0;orthogonalLoop=1;jettySize=auto;html=1;entryX=1;entryY=0.5;entryDx=0;entryDy=0;entryPerimeter=0;" edge="1" parent="CLAMz1ynW3SBTakcCYcM-42" source="CLAMz1ynW3SBTakcCYcM-53" target="CLAMz1ynW3SBTakcCYcM-55">
          <mxGeometry relative="1" as="geometry">
            <Array as="points">
              <mxPoint x="490" y="305" />
            </Array>
          </mxGeometry>
        </mxCell>
        <mxCell id="Xsv6D0fHZQTa1M_jnzUs-5" value="" style="group" vertex="1" connectable="0" parent="1">
          <mxGeometry x="650" y="490" width="610" height="440" as="geometry" />
        </mxCell>
        <mxCell id="Xsv6D0fHZQTa1M_jnzUs-6" value="" style="rounded=1;whiteSpace=wrap;html=1;absoluteArcSize=1;arcSize=14;strokeWidth=2;movable=1;resizable=1;rotatable=1;deletable=1;editable=1;locked=0;connectable=1;" vertex="1" parent="Xsv6D0fHZQTa1M_jnzUs-5">
          <mxGeometry width="610" height="440" as="geometry" />
        </mxCell>
        <mxCell id="Xsv6D0fHZQTa1M_jnzUs-7" style="edgeStyle=orthogonalEdgeStyle;rounded=0;orthogonalLoop=1;jettySize=auto;html=1;" edge="1" parent="Xsv6D0fHZQTa1M_jnzUs-5" source="Xsv6D0fHZQTa1M_jnzUs-8" target="Xsv6D0fHZQTa1M_jnzUs-12">
          <mxGeometry relative="1" as="geometry" />
        </mxCell>
        <mxCell id="Xsv6D0fHZQTa1M_jnzUs-8" value="Cliente acessa sistema" style="rounded=1;whiteSpace=wrap;html=1;" vertex="1" parent="Xsv6D0fHZQTa1M_jnzUs-5">
          <mxGeometry x="90" y="55" width="120" height="60" as="geometry" />
        </mxCell>
        <mxCell id="Xsv6D0fHZQTa1M_jnzUs-9" value="" style="ellipse;html=1;shape=startState;fillColor=#000000;strokeColor=#ff0000;" vertex="1" parent="Xsv6D0fHZQTa1M_jnzUs-5">
          <mxGeometry x="10" y="70" width="30" height="30" as="geometry" />
        </mxCell>
        <mxCell id="Xsv6D0fHZQTa1M_jnzUs-10" value="" style="edgeStyle=orthogonalEdgeStyle;html=1;verticalAlign=bottom;endArrow=open;endSize=8;strokeColor=#ff0000;rounded=0;entryX=0;entryY=0.5;entryDx=0;entryDy=0;" edge="1" parent="Xsv6D0fHZQTa1M_jnzUs-5" source="Xsv6D0fHZQTa1M_jnzUs-9" target="Xsv6D0fHZQTa1M_jnzUs-8">
          <mxGeometry relative="1" as="geometry">
            <mxPoint x="25" y="160" as="targetPoint" />
          </mxGeometry>
        </mxCell>
        <mxCell id="Xsv6D0fHZQTa1M_jnzUs-11" style="edgeStyle=orthogonalEdgeStyle;rounded=0;orthogonalLoop=1;jettySize=auto;html=1;entryX=0;entryY=0.5;entryDx=0;entryDy=0;" edge="1" parent="Xsv6D0fHZQTa1M_jnzUs-5" source="Xsv6D0fHZQTa1M_jnzUs-12" target="Xsv6D0fHZQTa1M_jnzUs-14">
          <mxGeometry relative="1" as="geometry" />
        </mxCell>
        <mxCell id="Xsv6D0fHZQTa1M_jnzUs-12" value="Consulta reserva atual" style="rounded=1;whiteSpace=wrap;html=1;" vertex="1" parent="Xsv6D0fHZQTa1M_jnzUs-5">
          <mxGeometry x="260" y="55" width="120" height="60" as="geometry" />
        </mxCell>
        <mxCell id="Xsv6D0fHZQTa1M_jnzUs-13" style="edgeStyle=orthogonalEdgeStyle;rounded=0;orthogonalLoop=1;jettySize=auto;html=1;entryX=0.5;entryY=0;entryDx=0;entryDy=0;" edge="1" parent="Xsv6D0fHZQTa1M_jnzUs-5" source="Xsv6D0fHZQTa1M_jnzUs-14" target="Xsv6D0fHZQTa1M_jnzUs-16">
          <mxGeometry relative="1" as="geometry" />
        </mxCell>
        <mxCell id="Xsv6D0fHZQTa1M_jnzUs-14" value="Clica em &quot;Check-in&quot;" style="rounded=1;whiteSpace=wrap;html=1;" vertex="1" parent="Xsv6D0fHZQTa1M_jnzUs-5">
          <mxGeometry x="430" y="55" width="120" height="60" as="geometry" />
        </mxCell>
        <mxCell id="Xsv6D0fHZQTa1M_jnzUs-15" style="edgeStyle=orthogonalEdgeStyle;rounded=0;orthogonalLoop=1;jettySize=auto;html=1;entryX=1;entryY=0.5;entryDx=0;entryDy=0;" edge="1" parent="Xsv6D0fHZQTa1M_jnzUs-5" source="Xsv6D0fHZQTa1M_jnzUs-16" target="Xsv6D0fHZQTa1M_jnzUs-17">
          <mxGeometry relative="1" as="geometry" />
        </mxCell>
        <mxCell id="Xsv6D0fHZQTa1M_jnzUs-16" value="Sistema encerra reserva, gera fatura final (se houver pendências)" style="rounded=1;whiteSpace=wrap;html=1;" vertex="1" parent="Xsv6D0fHZQTa1M_jnzUs-5">
          <mxGeometry x="430" y="150" width="120" height="60" as="geometry" />
        </mxCell>
        <mxCell id="Xsv6D0fHZQTa1M_jnzUs-17" value="Envia recibo" style="rounded=1;whiteSpace=wrap;html=1;" vertex="1" parent="Xsv6D0fHZQTa1M_jnzUs-5">
          <mxGeometry x="260" y="150" width="120" height="60" as="geometry" />
        </mxCell>
        <mxCell id="Xsv6D0fHZQTa1M_jnzUs-18" value="" style="verticalLabelPosition=bottom;verticalAlign=top;html=1;shape=mxgraph.flowchart.on-page_reference;container=0;" vertex="1" parent="Xsv6D0fHZQTa1M_jnzUs-5">
          <mxGeometry x="305" y="290" width="30" height="30" as="geometry" />
        </mxCell>
        <mxCell id="Xsv6D0fHZQTa1M_jnzUs-19" value="" style="verticalLabelPosition=bottom;verticalAlign=top;html=1;shape=mxgraph.flowchart.on-page_reference;fillColor=#000000;container=0;" vertex="1" parent="Xsv6D0fHZQTa1M_jnzUs-5">
          <mxGeometry x="315" y="290" width="10" height="30" as="geometry" />
        </mxCell>
        <mxCell id="Xsv6D0fHZQTa1M_jnzUs-20" value="Check-out Online" style="text;html=1;align=center;verticalAlign=middle;resizable=0;points=[];autosize=1;strokeColor=none;fillColor=none;" vertex="1" parent="Xsv6D0fHZQTa1M_jnzUs-5">
          <mxGeometry x="25" width="120" height="30" as="geometry" />
        </mxCell>
        <mxCell id="Xsv6D0fHZQTa1M_jnzUs-21" style="edgeStyle=orthogonalEdgeStyle;rounded=0;orthogonalLoop=1;jettySize=auto;html=1;entryX=0.5;entryY=0;entryDx=0;entryDy=0;entryPerimeter=0;" edge="1" parent="Xsv6D0fHZQTa1M_jnzUs-5" source="Xsv6D0fHZQTa1M_jnzUs-17" target="Xsv6D0fHZQTa1M_jnzUs-18">
          <mxGeometry relative="1" as="geometry" />
        </mxCell>
        <mxCell id="Xsv6D0fHZQTa1M_jnzUs-22" style="edgeStyle=orthogonalEdgeStyle;rounded=0;orthogonalLoop=1;jettySize=auto;html=1;entryX=1;entryY=0.5;entryDx=0;entryDy=0;entryPerimeter=0;" edge="1" parent="Xsv6D0fHZQTa1M_jnzUs-5" source="Xsv6D0fHZQTa1M_jnzUs-16" target="Xsv6D0fHZQTa1M_jnzUs-18">
          <mxGeometry relative="1" as="geometry">
            <Array as="points">
              <mxPoint x="490" y="305" />
            </Array>
          </mxGeometry>
        </mxCell>
        <mxCell id="Xsv6D0fHZQTa1M_jnzUs-24" value="" style="group" vertex="1" connectable="0" parent="1">
          <mxGeometry x="360" y="950" width="610" height="440" as="geometry" />
        </mxCell>
        <mxCell id="Xsv6D0fHZQTa1M_jnzUs-25" value="" style="rounded=1;whiteSpace=wrap;html=1;absoluteArcSize=1;arcSize=14;strokeWidth=2;" vertex="1" parent="Xsv6D0fHZQTa1M_jnzUs-24">
          <mxGeometry width="610" height="440" as="geometry" />
        </mxCell>
        <mxCell id="Xsv6D0fHZQTa1M_jnzUs-26" style="edgeStyle=orthogonalEdgeStyle;rounded=0;orthogonalLoop=1;jettySize=auto;html=1;" edge="1" parent="Xsv6D0fHZQTa1M_jnzUs-24" source="Xsv6D0fHZQTa1M_jnzUs-27" target="Xsv6D0fHZQTa1M_jnzUs-31">
          <mxGeometry relative="1" as="geometry" />
        </mxCell>
        <mxCell id="Xsv6D0fHZQTa1M_jnzUs-27" value="Usuário acessa a área de cadastro" style="rounded=1;whiteSpace=wrap;html=1;" vertex="1" parent="Xsv6D0fHZQTa1M_jnzUs-24">
          <mxGeometry x="90" y="55" width="120" height="60" as="geometry" />
        </mxCell>
        <mxCell id="Xsv6D0fHZQTa1M_jnzUs-28" value="" style="ellipse;html=1;shape=startState;fillColor=#000000;strokeColor=#ff0000;" vertex="1" parent="Xsv6D0fHZQTa1M_jnzUs-24">
          <mxGeometry x="10" y="70" width="30" height="30" as="geometry" />
        </mxCell>
        <mxCell id="Xsv6D0fHZQTa1M_jnzUs-29" value="" style="edgeStyle=orthogonalEdgeStyle;html=1;verticalAlign=bottom;endArrow=open;endSize=8;strokeColor=#ff0000;rounded=0;entryX=0;entryY=0.5;entryDx=0;entryDy=0;" edge="1" parent="Xsv6D0fHZQTa1M_jnzUs-24" source="Xsv6D0fHZQTa1M_jnzUs-28" target="Xsv6D0fHZQTa1M_jnzUs-27">
          <mxGeometry relative="1" as="geometry">
            <mxPoint x="25" y="160" as="targetPoint" />
          </mxGeometry>
        </mxCell>
        <mxCell id="Xsv6D0fHZQTa1M_jnzUs-30" style="edgeStyle=orthogonalEdgeStyle;rounded=0;orthogonalLoop=1;jettySize=auto;html=1;entryX=0;entryY=0.5;entryDx=0;entryDy=0;" edge="1" parent="Xsv6D0fHZQTa1M_jnzUs-24" source="Xsv6D0fHZQTa1M_jnzUs-31" target="Xsv6D0fHZQTa1M_jnzUs-32">
          <mxGeometry relative="1" as="geometry" />
        </mxCell>
        <mxCell id="Xsv6D0fHZQTa1M_jnzUs-31" value="Preenche dados pessoais" style="rounded=1;whiteSpace=wrap;html=1;" vertex="1" parent="Xsv6D0fHZQTa1M_jnzUs-24">
          <mxGeometry x="260" y="55" width="120" height="60" as="geometry" />
        </mxCell>
        <mxCell id="Xsv6D0fHZQTa1M_jnzUs-32" value="Informa e-mail e cria senha" style="rounded=1;whiteSpace=wrap;html=1;" vertex="1" parent="Xsv6D0fHZQTa1M_jnzUs-24">
          <mxGeometry x="430" y="55" width="120" height="60" as="geometry" />
        </mxCell>
        <mxCell id="Xsv6D0fHZQTa1M_jnzUs-33" value="" style="verticalLabelPosition=bottom;verticalAlign=top;html=1;shape=mxgraph.flowchart.on-page_reference;container=0;" vertex="1" parent="Xsv6D0fHZQTa1M_jnzUs-24">
          <mxGeometry x="305" y="380" width="30" height="30" as="geometry" />
        </mxCell>
        <mxCell id="Xsv6D0fHZQTa1M_jnzUs-34" value="" style="verticalLabelPosition=bottom;verticalAlign=top;html=1;shape=mxgraph.flowchart.on-page_reference;fillColor=#000000;container=0;" vertex="1" parent="Xsv6D0fHZQTa1M_jnzUs-24">
          <mxGeometry x="315" y="380" width="10" height="30" as="geometry" />
        </mxCell>
        <mxCell id="Xsv6D0fHZQTa1M_jnzUs-35" value="Cadastro de Cliente (Interno ou Externo)" style="text;html=1;align=center;verticalAlign=middle;resizable=0;points=[];autosize=1;strokeColor=none;fillColor=none;" vertex="1" parent="Xsv6D0fHZQTa1M_jnzUs-24">
          <mxGeometry width="240" height="30" as="geometry" />
        </mxCell>
        <mxCell id="Xsv6D0fHZQTa1M_jnzUs-36" value="" style="edgeStyle=segmentEdgeStyle;endArrow=classic;html=1;curved=0;rounded=0;endSize=8;startSize=8;entryX=0.5;entryY=0;entryDx=0;entryDy=0;exitX=0.5;exitY=1;exitDx=0;exitDy=0;entryPerimeter=0;" edge="1" parent="Xsv6D0fHZQTa1M_jnzUs-24" source="Xsv6D0fHZQTa1M_jnzUs-32" target="Xsv6D0fHZQTa1M_jnzUs-39">
          <mxGeometry width="50" height="50" relative="1" as="geometry">
            <mxPoint x="510" y="145" as="sourcePoint" />
            <mxPoint x="380" y="190" as="targetPoint" />
            <Array as="points">
              <mxPoint x="490" y="140" />
              <mxPoint x="320" y="140" />
            </Array>
          </mxGeometry>
        </mxCell>
        <mxCell id="Xsv6D0fHZQTa1M_jnzUs-37" style="edgeStyle=orthogonalEdgeStyle;rounded=0;orthogonalLoop=1;jettySize=auto;html=1;" edge="1" parent="Xsv6D0fHZQTa1M_jnzUs-24" source="Xsv6D0fHZQTa1M_jnzUs-39" target="Xsv6D0fHZQTa1M_jnzUs-41">
          <mxGeometry relative="1" as="geometry" />
        </mxCell>
        <mxCell id="Xsv6D0fHZQTa1M_jnzUs-38" style="edgeStyle=orthogonalEdgeStyle;rounded=0;orthogonalLoop=1;jettySize=auto;html=1;entryX=0;entryY=0.5;entryDx=0;entryDy=0;" edge="1" parent="Xsv6D0fHZQTa1M_jnzUs-24" source="Xsv6D0fHZQTa1M_jnzUs-39" target="Xsv6D0fHZQTa1M_jnzUs-42">
          <mxGeometry relative="1" as="geometry" />
        </mxCell>
        <mxCell id="Xsv6D0fHZQTa1M_jnzUs-39" value="Sistema valida dados" style="strokeWidth=2;html=1;shape=mxgraph.flowchart.decision;whiteSpace=wrap;" vertex="1" parent="Xsv6D0fHZQTa1M_jnzUs-24">
          <mxGeometry x="245" y="160" width="150" height="140" as="geometry" />
        </mxCell>
        <mxCell id="Xsv6D0fHZQTa1M_jnzUs-40" style="edgeStyle=orthogonalEdgeStyle;rounded=0;orthogonalLoop=1;jettySize=auto;html=1;entryX=0.5;entryY=1;entryDx=0;entryDy=0;" edge="1" parent="Xsv6D0fHZQTa1M_jnzUs-24" source="Xsv6D0fHZQTa1M_jnzUs-41" target="Xsv6D0fHZQTa1M_jnzUs-28">
          <mxGeometry relative="1" as="geometry" />
        </mxCell>
        <mxCell id="Xsv6D0fHZQTa1M_jnzUs-41" value="Solicita correção dos dados" style="rounded=1;whiteSpace=wrap;html=1;" vertex="1" parent="Xsv6D0fHZQTa1M_jnzUs-24">
          <mxGeometry x="90" y="200" width="120" height="60" as="geometry" />
        </mxCell>
        <mxCell id="Xsv6D0fHZQTa1M_jnzUs-42" value="Cadastro efetuado" style="rounded=1;whiteSpace=wrap;html=1;" vertex="1" parent="Xsv6D0fHZQTa1M_jnzUs-24">
          <mxGeometry x="430" y="200" width="120" height="60" as="geometry" />
        </mxCell>
        <mxCell id="Xsv6D0fHZQTa1M_jnzUs-43" style="edgeStyle=orthogonalEdgeStyle;rounded=0;orthogonalLoop=1;jettySize=auto;html=1;entryX=1;entryY=0.5;entryDx=0;entryDy=0;entryPerimeter=0;" edge="1" parent="Xsv6D0fHZQTa1M_jnzUs-24" source="Xsv6D0fHZQTa1M_jnzUs-42" target="Xsv6D0fHZQTa1M_jnzUs-33">
          <mxGeometry relative="1" as="geometry">
            <Array as="points">
              <mxPoint x="490" y="395" />
            </Array>
          </mxGeometry>
        </mxCell>
      </root>
    </mxGraphModel>
  </diagram>
</mxfile>
